<svg xmlns="http://www.w3.org/2000/svg" xmlns:xlink="http://www.w3.org/1999/xlink" width="645" height="275.979" viewBox="0 0 645 275.979">
<defs>

<path id="Path_8129" data-name="Path 8129" d="M154.33,9.46s-32.87.33-35.47.26-29.09.13-31.54.13-27.11.39-30.27.39l-24.77-.06c-2.6,0-6.84-.11-7.11,1.12-.2,1,.56,1.29,3.33,1.27h1.51s-4.8-.3-4.88.75.76,1.19,4.69,1.28c0,0,7.47.21,10.16.21l78.48-.15h19.28c1.72,0,16.74-.13,16.74-.13" fill="none" stroke="#636467" stroke-width="0.05"></path>
<path id="Path_8130" data-name="Path 8130" d="M59.14,13.71a3.06,3.06,0,0,0-1-.43c-.33,0-.6.19-.72.11s-.47-.17-.17-.39.22-.34,0-.5-.34,0-.28.19-.26.23-.24.46.13.26.52.32a.54.54,0,0,1-.62.26c-.32,0-.9-.39-1.43-.34s-.94.62-1.34.51a6.5,6.5,0,0,0-1.84-.49.7.7,0,0,0-.4.17l-.37-.84s-.34.31-.28.41a3.108,3.108,0,0,0,.44.45c.1.08-.1.26-.26.22s-.18-.54-.41-.6-.49,0-.41.17.68.47.68.47a3.32,3.32,0,0,0-.47.56c0,.09.16.09.16.26s.13.15.27-.1a6,6,0,0,1,.22-.68s.12-.1.12.06-.12.44.07.55a.38.38,0,0,0,.35,0s-.17-.65,0-.82.7-.17,1.36.13c0,0,.92.49,1.46,0,0,0,.58-.41.91-.3a8.51,8.51,0,0,1,1,.3.76.76,0,0,0,.88-.19,1.52,1.52,0,0,1,1.78.17h0l.05-.12Z" fill="none" stroke="#d08e29" stroke-width="0.03"></path>
<path id="Path_8131" data-name="Path 8131" d="M50.81,13.86a2.48,2.48,0,0,0-.82-.17c-.18,0-.15.13-.08.32s0,.26.32.24S50.88,14,50.81,13.86Z" fill="none" stroke="#d08e29" stroke-width="0.03"></path>
<path id="Path_8132" data-name="Path 8132" d="M53.07,13.9l-.59-.08c-.26,0-.34,0-.4.17s0,.19.23.19S52.92,13.9,53.07,13.9Z" fill="none" stroke="#d08e29" stroke-width="0.03"></path>
<path id="Path_8133" data-name="Path 8133" d="M54.29,13.39s-.11-.22.18-.22.19-.34,0-.48-.24.31-.35.31-.16-.37-.25-.26-.17.37-.06.43S54.16,13.63,54.29,13.39Z" fill="none" stroke="#d08e29" stroke-width="0.03"></path>
<path id="Path_8134" data-name="Path 8134" d="M56.18,14.29s.14-.23,0-.28-.3.05-.51.11a1.9,1.9,0,0,1-.46.06s-.14-.17,0-.17.42,0,.34-.11a1.27,1.27,0,0,0-.54,0c-.14,0-.26,0-.2.15h-.34a2.229,2.229,0,0,0,.7.26c.25,0,.58-.09.71-.09s.23,0,.23.07S56.15,14.4,56.18,14.29Z" fill="none" stroke="#d08e29" stroke-width="0.03"></path>
<path id="Path_8135" data-name="Path 8135" d="M59,14.12s.08-.13,0-.13a1.69,1.69,0,0,0-.39,0c-.11,0-.18-.09-.3-.14a2.8,2.8,0,0,0-.65,0c-.2,0-.57,0-.62.1s0,.28.13.17.2-.21.26-.17.19.26.39.28.35-.11.58-.11Z" fill="none" stroke="#d08e29" stroke-width="0.03"></path>
<path id="Path_8136" data-name="Path 8136" d="M56.88,14.29s.15-.17,0-.23a.13.13,0,0,0-.2.12C56.74,14.29,56.78,14.4,56.88,14.29Z" fill="none" stroke="#d08e29" stroke-width="0.03"></path>
<path id="Path_8137" data-name="Path 8137" d="M52.93,14.12s.14,0,.08.15-.13.13-.16,0S52.83,14.12,52.93,14.12Z" fill="none" stroke="#d08e29" stroke-width="0.03"></path>
<path id="Path_8138" data-name="Path 8138" d="M50,13.86s.07-.09-.14-.23a.8.8,0,0,0-.73-.11,2.286,2.286,0,0,1-.87.38,4.55,4.55,0,0,1-1.07-.43,1,1,0,0,0-1.06.1c-.35.2-.6.49-.77.49a9.208,9.208,0,0,1-1.07-.37,2,2,0,0,0-1.9,0,1.58,1.58,0,0,1-1.75,0c-.28-.22-.35-.22-.35-.22a6.9,6.9,0,0,0-.2-.67c-.06-.17-.53,0-.44.14s.25.45.25.45h-.3s0-.51-.18-.56-.53,0-.51.07.3.27.35.36a2,2,0,0,1,.2.15,6.68,6.68,0,0,0-.76-.13c-.29,0-.4.11-.36.29s-.13.42.22.33.36-.21.71-.3a1.2,1.2,0,0,1,.91.09c.29.13.93.38,1.16.49a1.38,1.38,0,0,0,1-.22,1.6,1.6,0,0,1,.87-.39,4.2,4.2,0,0,1,1.19.28c.25.05.51.33,1,.33.31,0,.88-.77,1.4-.71a6.57,6.57,0,0,1,.84.3,1,1,0,0,0,1.23,0A.89.89,0,0,1,50,14Z" fill="none" stroke="#d08e29" stroke-width="0.03"></path>
<path id="Path_8139" data-name="Path 8139" d="M39.93,13.82a.41.41,0,0,0-.17.43c0,.26,0,.64-.11.64s-.44-.21-.39-.36a2.24,2.24,0,0,1,.42-.68C39.84,13.73,39.91,13.73,39.93,13.82Z" fill="none" stroke="#d08e29" stroke-width="0.03"></path>
<path id="Path_8140" data-name="Path 8140" d="M39.42,13.82,39,14.4c-.07.11-.29.2-.34-.11S39.14,13.77,39.42,13.82Z" fill="none" stroke="#d08e29" stroke-width="0.03"></path>
<path id="Path_8141" data-name="Path 8141" d="M41.24,14.29s-.54-.06-.42-.11l.18-.11a1.42,1.42,0,0,0-.33-.08c-.21,0-.42.07-.43.13s0,.17.4.28S41.34,14.42,41.24,14.29Z" fill="none" stroke="#d08e29" stroke-width="0.03"></path>
<path id="Path_8142" data-name="Path 8142" d="M41.83,14.27s.19,0,.19.13-.08.22-.14.11S41.71,14.27,41.83,14.27Z" fill="none" stroke="#d08e29" stroke-width="0.03"></path>
<path id="Path_8143" data-name="Path 8143" d="M42.45,14a1.82,1.82,0,0,0,.37.1c.11,0,.17.12.3.12a1.12,1.12,0,0,0,.25-.06s0-.13.2-.13.22.08.33.08.3,0,.3.11a.87.87,0,0,0,.3-.06c.15,0,.11.06,0,.15s0,.35-.17.2-.07-.29-.12-.2a.82.82,0,0,1-.45.13.85.85,0,0,1-.51-.15s-.16.15-.29,0-.27-.2-.29-.09-.35.13-.35,0S42.35,14,42.45,14Z" fill="none" stroke="#d08e29" stroke-width="0.03"></path>
<path id="Path_8144" data-name="Path 8144" d="M42.79,14.42s.14,0,.12.13-.25.09-.29,0S42.62,14.42,42.79,14.42Z" fill="none" stroke="#d08e29" stroke-width="0.03"></path>
<path id="Path_8145" data-name="Path 8145" d="M44.91,14.29s.31-.11.31,0-.08.37-.2.24S44.8,14.4,44.91,14.29Z" fill="none" stroke="#d08e29" stroke-width="0.03"></path>
<path id="Path_8146" data-name="Path 8146" d="M46,14a1.37,1.37,0,0,0,.47,0,.28.28,0,0,1,.22-.11c.13,0,.21.06.33.06s.24-.06.27,0,.34,0,.4,0-.21.22-.36.22-.51.06-.67.06-.24-.11-.31-.11S45.79,14.06,46,14Z" fill="none" stroke="#d08e29" stroke-width="0.03"></path>
<path id="Path_8147" data-name="Path 8147" d="M50,14.4a.32.32,0,0,0-.31-.15c-.22,0-.25-.13-.42-.13S49,14,48.79,14s-.3,0-.16.11.16.17.06.17,0,.11.23.11a4.67,4.67,0,0,0,.56-.09A1,1,0,0,0,50,14.4Z" fill="none" stroke="#d08e29" stroke-width="0.03"></path>
<path id="Path_8148" data-name="Path 8148" d="M48.1,14.42s.15-.24,0-.3-.27,0-.27.11S47.93,14.44,48.1,14.42Z" fill="none" stroke="#d08e29" stroke-width="0.03"></path>
<path id="Path_8149" data-name="Path 8149" d="M48.72,13.41s.29-.24.32-.36-.22-.25-.39-.11-.26.06-.26.06a2.34,2.34,0,0,1,.24.26s-.06.21-.18.13-.06-.39-.18-.45-.21.06-.21.23.32.35.39.4A.28.28,0,0,0,48.72,13.41Z" fill="none" stroke="#d08e29" stroke-width="0.03"></path>
<path id="Path_8150" data-name="Path 8150" d="M47.88,13.26a.52.52,0,0,0-.35-.26c-.18-.06-.22-.06-.22.05a.88.88,0,0,0,.4.23A.68.68,0,0,0,47.88,13.26Z" fill="none" stroke="#d08e29" stroke-width="0.03"></path>
<path id="Path_8151" data-name="Path 8151" d="M47.08,12.8s.22-.14.23,0-.11.25-.18.14a.12.12,0,0,1-.05-.14Z" fill="none" stroke="#d08e29" stroke-width="0.03"></path>
<path id="Path_8152" data-name="Path 8152" d="M45.52,13.63a1.51,1.51,0,0,0-.33-.41c-.17-.11-.28,0-.21.12a.74.74,0,0,0,.42.39C45.48,13.73,45.66,13.77,45.52,13.63Z" fill="none" stroke="#d08e29" stroke-width="0.03"></path>
<path id="Path_8153" data-name="Path 8153" d="M41.94,13.47a.86.86,0,0,0-.27-.42c-.18-.17-.23-.25-.34-.25s-.14.2,0,.31S41.88,13.6,41.94,13.47Z" fill="none" stroke="#d08e29" stroke-width="0.03"></path>
<path id="Path_8154" data-name="Path 8154" d="M38.21,14.27s.26-.09.26.13-.13.22-.31.11S38.21,14.27,38.21,14.27Z" fill="none" stroke="#d08e29" stroke-width="0.03"></path>
<path id="Path_8155" data-name="Path 8155" d="M37.52,14.29s.18.11.15.22-.15.11-.24,0a.13.13,0,0,1,.09-.22Z" fill="none" stroke="#d08e29" stroke-width="0.03"></path>
<path id="Path_8156" data-name="Path 8156" d="M38.38,13.73a.68.68,0,0,1-.58.17,3.81,3.81,0,0,1-1-.38,1,1,0,0,0-.9.21,1.8,1.8,0,0,1-.83.33,11.72,11.72,0,0,0-1.14-.37,2.56,2.56,0,0,0-1.16.17,1.57,1.57,0,0,1-1.13-.09,2.07,2.07,0,0,0-1.21-.25,1.41,1.41,0,0,0-.56.3s-.11-.67-.16-.9-.46-.18-.44.08a1.76,1.76,0,0,0,.47.85c-.2.11-.28.16-.5.05a4.58,4.58,0,0,0-1.09-.33c-.26-.05-.42,0-.33.33s.1.28.41.22.58-.22.72-.16.32,0,.29.11-.4.44-.4.61.4.26.4.26a2.92,2.92,0,0,1,.28-.82,3.47,3.47,0,0,1,1.05-.43c.22,0,1.12.13,1.21.3s-.23.13-.44.13a2,2,0,0,1-.66-.11c-.07,0-.11.22-.11.22a5.23,5.23,0,0,0-.6-.17c-.1,0-.08.17.18.23a1.84,1.84,0,0,1,.53.13.72.72,0,0,0,.49-.11,1.9,1.9,0,0,1,.75-.15,3.25,3.25,0,0,1,.78,0c.25.09.5.09.58.29a2.73,2.73,0,0,1,1-.07c.09,0,.32.15.32,0s-.2-.17-.43-.17-.26-.19-.47-.24a1.35,1.35,0,0,0-.52.17s-.6,0-.43-.17a1.8,1.8,0,0,1,1-.24,4.12,4.12,0,0,1,1.09.3c.19.11.48.2,1-.17a1,1,0,0,1,1-.17c.19,0,.81.45,1.11.28l.49-.19Z" fill="none" stroke="#d08e29" stroke-width="0.03"></path>
<path id="Path_8157" data-name="Path 8157" d="M37.25,14s-1.1.06-1.29.05-.5,0-.39.1a.3.3,0,0,1,.18.31c0,.17.19.06.37-.05a1.14,1.14,0,0,1,.55-.19C36.81,14.23,37.25,14.27,37.25,14Z" fill="none" stroke="#d08e29" stroke-width="0.03"></path>
<path id="Path_8158" data-name="Path 8158" d="M34.9,14.23s.3-.05.3.17-.3.11-.35,0A.18.18,0,0,1,34.9,14.23Z" fill="none" stroke="#d08e29" stroke-width="0.03"></path>
<path id="Path_8159" data-name="Path 8159" d="M37.52,13.47s.13-.55.18-.67.17,0,.17.1.24,0,.24.21S37.73,13.47,37.52,13.47Z" fill="none" stroke="#d08e29" stroke-width="0.03"></path>
<path id="Path_8160" data-name="Path 8160" d="M37.43,13.17s-.16-.23-.23-.1a.225.225,0,0,0,0,.23S37.43,13.28,37.43,13.17Z" fill="none" stroke="#d08e29" stroke-width="0.03"></path>
<path id="Path_8161" data-name="Path 8161" d="M32.25,14.42s.35-.11.35.13S32.15,14.83,32.25,14.42Z" fill="none" stroke="#d08e29" stroke-width="0.03"></path>
<path id="Path_8162" data-name="Path 8162" d="M31.52,14.4s.28-.11.24.11S31.43,14.83,31.52,14.4Z" fill="none" stroke="#d08e29" stroke-width="0.03"></path>
<path id="Path_8163" data-name="Path 8163" d="M29.88,14.31s.22.31,0,.31a.16.16,0,0,1,0-.31Z" fill="none" stroke="#d08e29" stroke-width="0.03"></path>
<path id="Path_8164" data-name="Path 8164" d="M31.32,13.28s.39-.11.39-.4-.32-.29-.32-.29a1,1,0,0,1-.12.49C31.12,13.22,31.24,13.15,31.32,13.28Z" fill="none" stroke="#d08e29" stroke-width="0.03"></path>
<path id="Path_8165" data-name="Path 8165" d="M35.25,13.57a1,1,0,0,1,0-.69c.1-.27-.3-.25-.43,0s-.12.4,0,.51A.61.61,0,0,0,35.25,13.57Z" fill="none" stroke="#d08e29" stroke-width="0.03"></path>
<path id="Path_8166" data-name="Path 8166" d="M28.93,14.23a6.471,6.471,0,0,1-.46.54c-.14.12-.23-.09-.23-.22S28.69,14.23,28.93,14.23Z" fill="none" stroke="#d08e29" stroke-width="0.03"></path>
<path id="Path_8167" data-name="Path 8167" d="M29.36,13.69a3.47,3.47,0,0,0-.22-.54c-.1-.27-.21-.27-.4-.27s-.19.12-.09.27a2.57,2.57,0,0,0,.71.54Z" fill="none" stroke="#d08e29" stroke-width="0.03"></path>
<path id="Path_8168" data-name="Path 8168" d="M59.05,11.06a3.28,3.28,0,0,1-1,.38c-.31,0-.6-.14-.69-.1s-.46.22-.24.41.28.35,0,.5-.27,0-.26-.18-.24-.24-.24-.42.15-.35.5-.35a.57.57,0,0,0-.6-.31,4.71,4.71,0,0,1-1.42.42c-.51-.07-.94-.63-1.34-.56s-1.35.59-1.85.53a1,1,0,0,1-.4-.19l-.33.86s-.32-.3-.32-.39.38-.38.48-.52S51.2,11,51,11s-.15.56-.36.64-.45,0-.42-.21.66-.43.66-.43l-.47-.59c-.06-.08.2,0,.2-.23s.1-.18.23.09a6.424,6.424,0,0,1,.25.63s.13.14.1,0-.11-.39.09-.51a.256.256,0,0,1,.32,0s-.13.63,0,.83.72.19,1.36-.16c0,0,.88-.49,1.46,0,0,0,.58.39.89.33s.7-.25,1-.33a.7.7,0,0,1,.87.17A1.52,1.52,0,0,0,59,11c.1-.1.08,0,.08,0v.12Z" fill="none" stroke="#d08e29" stroke-width="0.03"></path>
<path id="Path_8169" data-name="Path 8169" d="M50.71,11a3.47,3.47,0,0,1-.8.16c-.18,0-.15-.16-.1-.33s.06-.26.34-.24S50.78,10.85,50.71,11Z" fill="none" stroke="#d08e29" stroke-width="0.03"></path>
<path id="Path_8170" data-name="Path 8170" d="M53,10.85a2.09,2.09,0,0,1-.55.1c-.29,0-.37,0-.46-.17s0-.15.25-.15S52.83,10.85,53,10.85Z" fill="none" stroke="#d08e29" stroke-width="0.03"></path>
<path id="Path_8171" data-name="Path 8171" d="M54.18,11.41s-.06.2.17.18.22.35,0,.48-.19-.3-.33-.25-.13.32-.26.18a.254.254,0,0,1,0-.39C53.87,11.54,54.09,11.14,54.18,11.41Z" fill="none" stroke="#d08e29" stroke-width="0.03"></path>
<path id="Path_8172" data-name="Path 8172" d="M56.15,10.48s.1.21,0,.28-.37-.07-.56-.13a2.77,2.77,0,0,0-.47,0s-.13.17.09.17.4,0,.28.1-.42.05-.53.05-.24-.06-.17-.2c-.23.07-.4.11-.38,0s.44-.21.71-.19a3.33,3.33,0,0,1,.76.07c.14,0,.19,0,.19-.07S56.08,10.42,56.15,10.48Z" fill="none" stroke="#d08e29" stroke-width="0.03"></path>
<path id="Path_8173" data-name="Path 8173" d="M58.92,10.63s.11.13,0,.15h-.39c-.08,0-.15.07-.29.13a2.74,2.74,0,0,1-.61,0c-.22,0-.58,0-.63-.15s0-.26.11-.17.19.23.28.19.17-.23.36-.23.4.09.54.09S58.92,10.63,58.92,10.63Z" fill="none" stroke="#d08e29" stroke-width="0.03"></path>
<path id="Path_8174" data-name="Path 8174" d="M56.82,10.46s.1.17,0,.23a.152.152,0,0,1-.23-.15C56.59,10.39,56.68,10.42,56.82,10.46Z" fill="none" stroke="#d08e29" stroke-width="0.03"></path>
<path id="Path_8175" data-name="Path 8175" d="M52.87,10.68s.11,0,.06-.16-.1-.09-.17,0S52.76,10.68,52.87,10.68Z" fill="none" stroke="#d08e29" stroke-width="0.03"></path>
<path id="Path_8176" data-name="Path 8176" d="M49.84,11s.11.11-.15.19a1,1,0,0,1-.68.16c-.19,0-.63-.35-.86-.35a3.32,3.32,0,0,0-1.07.39,1.23,1.23,0,0,1-1.1-.08c-.29-.2-.58-.5-.72-.5a8,8,0,0,0-1.1.38,1.85,1.85,0,0,1-1.92,0,1.62,1.62,0,0,0-1.74,0,1.92,1.92,0,0,1-.36.24,5.49,5.49,0,0,1-.16.67c-.09.13-.54-.05-.49-.13a1.66,1.66,0,0,1,.3-.48h-.28s0,.56-.18.56-.51.05-.48-.06.28-.23.36-.33a1.08,1.08,0,0,1,.14-.2,4.83,4.83,0,0,1-.74.18c-.27,0-.39-.15-.39-.29s-.1-.45.3-.35.33.19.69.31a1.16,1.16,0,0,0,.91-.12c.28-.11.91-.38,1.17-.51a1.2,1.2,0,0,1,.9.23,1.76,1.76,0,0,0,.87.44A5.54,5.54,0,0,0,44.29,11a1.88,1.88,0,0,1,1-.36c.31,0,.87.75,1.38.71,0,0,.56-.2.89-.35a1,1,0,0,1,1.19,0,.81.81,0,0,0,1.12-.17Z" fill="none" stroke="#d08e29" stroke-width="0.03"></path>
<path id="Path_8177" data-name="Path 8177" d="M39.85,11.06a.54.54,0,0,1-.17-.47c0-.26,0-.7-.08-.7s-.47.29-.39.42.23.6.39.68S39.85,11.12,39.85,11.06Z" fill="none" stroke="#d08e29" stroke-width="0.03"></path>
<path id="Path_8178" data-name="Path 8178" d="M39.33,11.06a7.239,7.239,0,0,1-.41-.6.2.2,0,0,0-.37.08C38.52,10.85,39.05,11.08,39.33,11.06Z" fill="none" stroke="#d08e29" stroke-width="0.03"></path>
<path id="Path_8179" data-name="Path 8179" d="M41.16,10.54s-.52.05-.46.14a1,1,0,0,1,.21.08,1.34,1.34,0,0,1-.34.09.53.53,0,0,1-.43-.16c0-.06,0-.15.41-.23S41.29,10.43,41.16,10.54Z" fill="none" stroke="#d08e29" stroke-width="0.03"></path>
<path id="Path_8180" data-name="Path 8180" d="M41.73,10.54s.21.09.21-.08-.06-.24-.19-.13S41.63,10.54,41.73,10.54Z" fill="none" stroke="#d08e29" stroke-width="0.03"></path>
<path id="Path_8181" data-name="Path 8181" d="M42.36,10.85l.36-.09c.13,0,.21-.13.3-.13a1,1,0,0,1,.26.06.17.17,0,0,0,.19.16c.17,0,.24-.14.32-.14h.66c.16,0,.08-.06,0-.15s0-.3-.18-.19,0,.28-.13.19-.21-.08-.43-.08-.47,0-.53.13a.35.35,0,0,0-.33-.05c-.08.15-.2.22-.27.14s-.34-.16-.34,0S42.26,10.86,42.36,10.85Z" fill="none" stroke="#d08e29" stroke-width="0.03"></path>
<path id="Path_8182" data-name="Path 8182" d="M42.7,10.46s.15-.1.12-.18-.26-.1-.27,0S42.55,10.46,42.7,10.46Z" fill="none" stroke="#d08e29" stroke-width="0.03"></path>
<path id="Path_8183" data-name="Path 8183" d="M44.82,10.54s.32.09.32-.08-.1-.35-.23-.22S44.72,10.43,44.82,10.54Z" fill="none" stroke="#d08e29" stroke-width="0.03"></path>
<path id="Path_8184" data-name="Path 8184" d="M45.89,10.82a2.58,2.58,0,0,1,.45,0c.08.07.14.17.25.17s.21-.1.33-.1a1,1,0,0,1,.26,0c0-.07.35-.07.45-.09s-.28-.22-.43-.22h-.64c-.11,0-.23.11-.32.11S45.73,10.76,45.89,10.82Z" fill="none" stroke="#d08e29" stroke-width="0.03"></path>
<path id="Path_8185" data-name="Path 8185" d="M50,10.43s-.07.11-.31.11-.25.15-.45.15a4.3,4.3,0,0,0-.47.09c-.2,0-.33,0-.2-.09s.2-.19.11-.19h.76A.863.863,0,0,1,50,10.43Z" fill="none" stroke="#d08e29" stroke-width="0.03"></path>
<path id="Path_8186" data-name="Path 8186" d="M48,10.43s.12.16,0,.25a.135.135,0,0,1-.23-.09C47.77,10.5,47.86,10.36,48,10.43Z" fill="none" stroke="#d08e29" stroke-width="0.03"></path>
<path id="Path_8187" data-name="Path 8187" d="M48.65,11.38s.3.28.32.39-.25.23-.4.09-.22,0-.22,0a1.44,1.44,0,0,0,.17-.27c0-.07-.07-.26-.13-.13s0,.39-.18.43-.2,0-.2-.18.26-.38.38-.42S48.65,11.38,48.65,11.38Z" fill="none" stroke="#d08e29" stroke-width="0.03"></path>
<path id="Path_8188" data-name="Path 8188" d="M47.81,11.56a.52.52,0,0,1-.31.26c-.23,0-.3,0-.29-.05a1.75,1.75,0,0,1,.42-.26.5.5,0,0,1,.18.05Z" fill="none" stroke="#d08e29" stroke-width="0.03"></path>
<path id="Path_8189" data-name="Path 8189" d="M47.05,12s.15.14.15,0-.07-.21-.15-.14A.089.089,0,0,0,47.05,12Z" fill="none" stroke="#d08e29" stroke-width="0.03"></path>
<path id="Path_8190" data-name="Path 8190" d="M45.46,11.14a1.43,1.43,0,0,1-.36.45c-.19.12-.28,0-.23-.15a.783.783,0,0,1,.44-.36C45.4,11.08,45.57,11.06,45.46,11.14Z" fill="none" stroke="#d08e29" stroke-width="0.03"></path>
<path id="Path_8191" data-name="Path 8191" d="M41.88,11.34a1.25,1.25,0,0,1-.27.48c-.19.18-.27.18-.37.18s-.13-.14-.05-.29S41.79,11.23,41.88,11.34Z" fill="none" stroke="#d08e29" stroke-width="0.03"></path>
<path id="Path_8192" data-name="Path 8192" d="M38.11,10.59s.27.09.27-.09-.16-.26-.27-.17a.15.15,0,0,0,0,.26Z" fill="none" stroke="#d08e29" stroke-width="0.03"></path>
<path id="Path_8193" data-name="Path 8193" d="M37.43,10.54a.165.165,0,0,0,.17-.19c-.02-.19-.17-.11-.27,0S37.38,10.59,37.43,10.54Z" fill="none" stroke="#d08e29" stroke-width="0.03"></path>
<path id="Path_8194" data-name="Path 8194" d="M38.3,11.12a.68.68,0,0,0-.57-.17,5.38,5.38,0,0,0-1.06.39,1,1,0,0,1-.86-.2A1.58,1.58,0,0,0,35,10.8a9.345,9.345,0,0,0-1.14.41A2.94,2.94,0,0,1,32.68,11a1.73,1.73,0,0,0-1.15.09,2.17,2.17,0,0,1-1.22.3,1.58,1.58,0,0,1-.54-.32,7.08,7.08,0,0,1-.18.94c-.07.16-.41.16-.39-.08a1.53,1.53,0,0,1,.43-.86c-.19-.11-.27-.2-.49-.07a4.56,4.56,0,0,1-1.08.35c-.31,0-.42,0-.36-.35s.17-.3.43-.23a4.171,4.171,0,0,0,.73.19c.17,0,.34-.1.28-.17s-.4-.36-.35-.54.34-.29.34-.29.12.68.29.81a3.65,3.65,0,0,0,1,.47,3.44,3.44,0,0,0,1.27-.32c.09-.15-.27-.15-.47-.13a3.11,3.11,0,0,0-.65.07c-.11.06-.15-.17-.15-.17a3.1,3.1,0,0,1-.57.17c-.13,0-.1-.17.19-.22a5.49,5.49,0,0,0,.53-.15,1.73,1.73,0,0,1,.47.06,1.44,1.44,0,0,0,.74.22,2.84,2.84,0,0,0,.8-.07c.25-.1.51-.06.58-.26a4.05,4.05,0,0,0,1,.05c.12,0,.33-.17.33,0s-.17.17-.41.17-.25.17-.46.19a1.21,1.21,0,0,1-.52-.11s-.62,0-.43.11a1.6,1.6,0,0,0,1,.3,7.43,7.43,0,0,0,1.09-.34c.13-.09.46-.19,1,.19a1,1,0,0,0,1,.15c.24,0,.84-.43,1.13-.34a4.39,4.39,0,0,1,.51.25Z" fill="none" stroke="#d08e29" stroke-width="0.03"></path>
<path id="Path_8195" data-name="Path 8195" d="M37.16,10.82H35.88c-.18,0-.5,0-.39-.07a.279.279,0,0,0,.16-.29c0-.17.21-.09.39,0a1.61,1.61,0,0,0,.57.17C36.75,10.63,37.16,10.59,37.16,10.82Z" fill="none" stroke="#d08e29" stroke-width="0.03"></path>
<path id="Path_8196" data-name="Path 8196" d="M34.83,10.63s.27,0,.27-.11-.29-.1-.33-.06S34.83,10.63,34.83,10.63Z" fill="none" stroke="#d08e29" stroke-width="0.03"></path>
<path id="Path_8197" data-name="Path 8197" d="M37.43,11.41s.17.53.19.64.18,0,.18-.11.16,0,.16-.17S37.62,11.41,37.43,11.41Z" fill="none" stroke="#d08e29" stroke-width="0.03"></path>
<path id="Path_8198" data-name="Path 8198" d="M37.36,11.71s-.16.21-.23.11,0-.26.07-.26S37.38,11.59,37.36,11.71Z" fill="none" stroke="#d08e29" stroke-width="0.03"></path>
<path id="Path_8199" data-name="Path 8199" d="M32.15,10.46s.35.08.35-.13S32.11,10.05,32.15,10.46Z" fill="none" stroke="#d08e29" stroke-width="0.03"></path>
<path id="Path_8200" data-name="Path 8200" d="M31.43,10.52s.28.07.24-.16S31.35,10.07,31.43,10.52Z" fill="none" stroke="#d08e29" stroke-width="0.03"></path>
<path id="Path_8201" data-name="Path 8201" d="M29.82,10.54s.19-.26,0-.26S29.59,10.54,29.82,10.54Z" fill="none" stroke="#d08e29" stroke-width="0.03"></path>
<path id="Path_8202" data-name="Path 8202" d="M31.24,11.59s.38.12.38.41a.29.29,0,0,1-.3.29,1.11,1.11,0,0,0-.13-.46C31.06,11.71,31.15,11.77,31.24,11.59Z" fill="none" stroke="#d08e29" stroke-width="0.03"></path>
<path id="Path_8203" data-name="Path 8203" d="M35.16,11.3a1,1,0,0,0,0,.7c.14.25-.31.25-.44,0a.48.48,0,0,1,0-.56,1.2,1.2,0,0,1,.44-.14Z" fill="none" stroke="#d08e29" stroke-width="0.03"></path>
<path id="Path_8204" data-name="Path 8204" d="M28.82,10.68a3,3,0,0,0-.47-.57c-.11-.1-.17.13-.17.24S28.6,10.68,28.82,10.68Z" fill="none" stroke="#d08e29" stroke-width="0.03"></path>
<path id="Path_8205" data-name="Path 8205" d="M29.29,11.21a3.27,3.27,0,0,1-.2.56.4.4,0,0,1-.44.23c-.23,0-.15-.08-.07-.23a1.61,1.61,0,0,1,.71-.56Z" fill="none" stroke="#d08e29" stroke-width="0.03"></path>
<path id="Path_8206" data-name="Path 8206" d="M90.4,13.63a3.35,3.35,0,0,0-1-.41c-.36,0-.61.17-.72.12s-.43-.19-.2-.4.24-.33.09-.5-.32,0-.32.17-.26.27-.22.44.14.29.54.34a.74.74,0,0,1-.65.3,4.82,4.82,0,0,0-1.43-.39c-.47,0-.92.6-1.35.56s-1.34-.6-1.82-.52a.77.77,0,0,0-.43.18l-.31-.89s-.35.31-.35.45.38.33.48.44-.13.25-.3.25-.14-.55-.36-.62-.48,0-.4.19.67.43.67.43a4.57,4.57,0,0,0-.45.54c0,.13.15.11.16.29s.13.14.2-.09a5.218,5.218,0,0,0,.22-.66s.16-.12.13.05-.13.39.11.52a.3.3,0,0,0,.32,0s-.16-.64,0-.84.72-.21,1.38.13c0,0,.92.54,1.45,0,0,0,.57-.39.88-.32a7.24,7.24,0,0,0,1,.32.76.76,0,0,0,.88-.16,1.52,1.52,0,0,1,1.78.16h0l.06-.14Z" fill="none" stroke="#d08e29" stroke-width="0.03"></path>
<path id="Path_8207" data-name="Path 8207" d="M82.08,13.77a2.63,2.63,0,0,0-.84-.14c-.22.06-.16.14-.1.27s.06.28.33.28S82.13,13.86,82.08,13.77Z" fill="none" stroke="#d08e29" stroke-width="0.03"></path>
<path id="Path_8208" data-name="Path 8208" d="M84.35,13.85s-.34-.08-.63-.12-.33,0-.37.17-.06.17.18.17S84.18,13.85,84.35,13.85Z" fill="none" stroke="#d08e29" stroke-width="0.03"></path>
<path id="Path_8209" data-name="Path 8209" d="M85.54,13.3s-.08-.19.18-.19.17-.37,0-.5-.24.31-.34.29-.18-.33-.28-.27-.12.42,0,.48S85.44,13.57,85.54,13.3Z" fill="none" stroke="#d08e29" stroke-width="0.03"></path>
<path id="Path_8210" data-name="Path 8210" d="M87.45,14.18s.14-.17,0-.28-.33.1-.45.1a2.15,2.15,0,0,1-.5.06s-.14-.17.06-.17.45,0,.34-.08a1.25,1.25,0,0,0-.56-.05c-.17,0-.26.08-.19.22-.25-.09-.36-.13-.36,0s.43.19.71.19a2.54,2.54,0,0,0,.74-.12c.18-.05.21,0,.21.12S87.41,14.29,87.45,14.18Z" fill="none" stroke="#d08e29" stroke-width="0.03"></path>
<path id="Path_8211" data-name="Path 8211" d="M90.28,14s.09-.11,0-.11H89.9c-.07,0-.17-.08-.29-.13a2.9,2.9,0,0,0-.65,0c-.17,0-.51,0-.59.13s.08.26.11.15.21-.21.28-.16a.49.49,0,0,0,.36.21c.21,0,.36-.05.56-.05Z" fill="none" stroke="#d08e29" stroke-width="0.03"></path>
<path id="Path_8212" data-name="Path 8212" d="M88.16,14.18s.14-.17,0-.19-.22,0-.18.13S88.05,14.29,88.16,14.18Z" fill="none" stroke="#d08e29" stroke-width="0.03"></path>
<path id="Path_8213" data-name="Path 8213" d="M84.21,14s.11,0,.08.17-.11.11-.2,0S84.09,14,84.21,14Z" fill="none" stroke="#d08e29" stroke-width="0.03"></path>
<path id="Path_8214" data-name="Path 8214" d="M81.2,13.77s.07-.08-.18-.2a.81.81,0,0,0-.7-.16,3.19,3.19,0,0,1-.83.39,3.54,3.54,0,0,1-1.08-.41,1.12,1.12,0,0,0-1.09.08c-.28.24-.57.54-.75.54a6,6,0,0,1-1.11-.43,2,2,0,0,0-1.88.05,1.55,1.55,0,0,1-1.73,0c-.27-.21-.36-.21-.36-.21s-.14-.51-.2-.67-.51,0-.48.16a2,2,0,0,0,.29.42h-.26s0-.54-.16-.6-.54,0-.5.06a4.194,4.194,0,0,1,.35.37,1,1,0,0,0,.18.17,4,4,0,0,0-.76-.12c-.29-.05-.38.08-.38.3s-.11.38.26.3.35-.22.72-.3a.964.964,0,0,1,.87.08,12.53,12.53,0,0,0,1.18.47,1,1,0,0,0,.88-.17,2.67,2.67,0,0,1,.94-.43,6.22,6.22,0,0,1,1.22.3,2,2,0,0,0,1,.35c.28,0,.87-.78,1.36-.73a7.42,7.42,0,0,1,.87.34,1,1,0,0,0,1.23,0,.82.82,0,0,1,1.12.17Z" fill="none" stroke="#d08e29" stroke-width="0.03"></path>
<path id="Path_8215" data-name="Path 8215" d="M71.15,13.73a.5.5,0,0,0-.15.45c.06.24.06.65-.08.65s-.43-.21-.39-.36a2.15,2.15,0,0,1,.41-.7C71.08,13.69,71.15,13.63,71.15,13.73Z" fill="none" stroke="#d08e29" stroke-width="0.03"></path>
<path id="Path_8216" data-name="Path 8216" d="M70.68,13.73a5,5,0,0,0-.4.56c-.1.13-.33.22-.4-.06S70.39,13.71,70.68,13.73Z" fill="none" stroke="#d08e29" stroke-width="0.03"></path>
<path id="Path_8217" data-name="Path 8217" d="M72.53,14.18s-.58,0-.47-.11a.38.38,0,0,1,.2-.06.79.79,0,0,0-.34-.11.6.6,0,0,0-.43.16c-.07.06,0,.17.4.23S72.6,14.4,72.53,14.18Z" fill="none" stroke="#d08e29" stroke-width="0.03"></path>
<path id="Path_8218" data-name="Path 8218" d="M73.08,14.18s.19-.06.19.11-.06.24-.19.15S73,14.18,73.08,14.18Z" fill="none" stroke="#d08e29" stroke-width="0.03"></path>
<path id="Path_8219" data-name="Path 8219" d="M73.71,13.9l.37.11c.1,0,.17.06.3.06h.27a.14.14,0,0,1,.14-.16c.2,0,.27.11.35.11s.32,0,.32.05.19,0,.3,0,.11.06,0,.12,0,.35-.16.24,0-.3-.14-.24a.832.832,0,0,1-.44.11c-.24,0-.49,0-.52-.11a.25.25,0,0,1-.29,0c-.12-.12-.27-.17-.31-.12s-.35.21-.35.06S73.59,13.86,73.71,13.9Z" fill="none" stroke="#d08e29" stroke-width="0.03"></path>
<path id="Path_8220" data-name="Path 8220" d="M74.06,14.31s.12.09.1.2-.25.07-.27,0A.154.154,0,0,1,74.06,14.31Z" fill="none" stroke="#d08e29" stroke-width="0.03"></path>
<path id="Path_8221" data-name="Path 8221" d="M76.18,14.18s.28-.06.28.09-.08.35-.17.24S76.05,14.31,76.18,14.18Z" fill="none" stroke="#d08e29" stroke-width="0.03"></path>
<path id="Path_8222" data-name="Path 8222" d="M77.19,13.9s.43.11.52,0,.09-.1.21-.1a.54.54,0,0,1,.31.1c.14,0,.26-.05.3,0a4,4,0,0,1,.4.09c.12,0-.24.19-.39.19h-.62a1.23,1.23,0,0,1-.38-.11C77.49,14.06,77.05,14,77.19,13.9Z" fill="none" stroke="#d08e29" stroke-width="0.03"></path>
<path id="Path_8223" data-name="Path 8223" d="M81.27,14.29s-.07-.13-.3-.11-.23-.17-.4-.17h-.69c.13,0,.16.22,0,.22s.06.06.26.06h.56C80.76,14.29,81.19,14.36,81.27,14.29Z" fill="none" stroke="#d08e29" stroke-width="0.03"></path>
<path id="Path_8224" data-name="Path 8224" d="M79.38,14.31s.11-.19,0-.25-.26-.05-.26.06S79.2,14.4,79.38,14.31Z" fill="none" stroke="#d08e29" stroke-width="0.03"></path>
<path id="Path_8225" data-name="Path 8225" d="M80,13.34a1.52,1.52,0,0,0,.31-.4.27.27,0,0,0-.4-.06c-.19.14-.24,0-.24,0s.17.21.23.27-.06.22-.17.13-.06-.38-.17-.42-.23,0-.19.2.29.33.36.39a.25.25,0,0,0,.27-.11Z" fill="none" stroke="#d08e29" stroke-width="0.03"></path>
<path id="Path_8226" data-name="Path 8226" d="M79.14,13.17a.41.41,0,0,0-.32-.25h-.26a.74.74,0,0,0,.37.28.47.47,0,0,0,.21-.03Z" fill="none" stroke="#d08e29" stroke-width="0.03"></path>
<path id="Path_8227" data-name="Path 8227" d="M78.38,12.74s.16-.13.16,0-.06.2-.16.14a.09.09,0,0,1,0-.14Z" fill="none" stroke="#d08e29" stroke-width="0.03"></path>
<path id="Path_8228" data-name="Path 8228" d="M76.82,13.57a3.74,3.74,0,0,0-.39-.42c-.14-.1-.29,0-.2.13s.32.41.39.41S76.9,13.71,76.82,13.57Z" fill="none" stroke="#d08e29" stroke-width="0.03"></path>
<path id="Path_8229" data-name="Path 8229" d="M73.21,13.39a1.42,1.42,0,0,0-.3-.45c-.16-.15-.2-.2-.34-.2s-.1.18,0,.31S73.16,13.52,73.21,13.39Z" fill="none" stroke="#d08e29" stroke-width="0.03"></path>
<path id="Path_8230" data-name="Path 8230" d="M69.46,14.18s.26-.06.24.11-.13.24-.26.15S69.46,14.18,69.46,14.18Z" fill="none" stroke="#d08e29" stroke-width="0.03"></path>
<path id="Path_8231" data-name="Path 8231" d="M68.77,14.18s.2.11.15.24-.15.13-.26,0a.16.16,0,0,1,.11-.24Z" fill="none" stroke="#d08e29" stroke-width="0.03"></path>
<path id="Path_8232" data-name="Path 8232" d="M69.63,13.63a.81.81,0,0,1-.57.22,3,3,0,0,1-1-.44,1,1,0,0,0-.87.22,1.41,1.41,0,0,1-.83.36,9.749,9.749,0,0,0-1.11-.41,5.75,5.75,0,0,0-1.2.19,1.75,1.75,0,0,1-1.15,0,2.12,2.12,0,0,0-1.2-.32c-.31.16-.56.32-.56.32s-.09-.65-.15-.85-.44-.25-.44,0a2,2,0,0,0,.44.87c-.16.13-.25.13-.47.05a8.08,8.08,0,0,0-1-.35c-.31,0-.39,0-.37.35s.11.3.39.24a2.538,2.538,0,0,1,.74-.16c.17.04.32.06.29.11s-.38.41-.34.59.31.29.31.29.12-.71.34-.83a2.31,2.31,0,0,1,1-.48,3.76,3.76,0,0,1,1.29.32c.12.16-.25.16-.47.11a3.53,3.53,0,0,1-.66,0c-.1-.06-.16.16-.16.16s-.48-.13-.55-.13-.09.13.21.19a2.44,2.44,0,0,0,.5.13c.12.09.4,0,.46-.06a1.8,1.8,0,0,1,.79-.19,3.46,3.46,0,0,1,.79.06c.19.06.48.06.55.28a3.93,3.93,0,0,1,1-.11c.11,0,.33.22.33.11s-.16-.22-.42-.22S65.2,14,65,14a1.94,1.94,0,0,0-.52.1s-.59,0-.4-.07a1.64,1.64,0,0,1,.92-.3A3.65,3.65,0,0,1,66,14a1,1,0,0,0,1-.19,1,1,0,0,1,1-.19c.17.08.81.43,1.1.36l.48-.22Z" fill="none" stroke="#d08e29" stroke-width="0.03"></path>
<path id="Path_8233" data-name="Path 8233" d="M68.48,14H67.21c-.17,0-.5,0-.39.05a.32.32,0,0,1,.19.34c0,.18.18.07.34,0a1.33,1.33,0,0,1,.58-.18C68.08,14.16,68.48,14.18,68.48,14Z" fill="none" stroke="#d08e29" stroke-width="0.03"></path>
<path id="Path_8234" data-name="Path 8234" d="M66.18,14.12s.26,0,.26.17-.28.13-.32,0a.13.13,0,0,1,.06-.17Z" fill="none" stroke="#d08e29" stroke-width="0.03"></path>
<path id="Path_8235" data-name="Path 8235" d="M68.8,13.39s.12-.51.17-.65.18,0,.18.09.17.05.17.22S69,13.39,68.8,13.39Z" fill="none" stroke="#d08e29" stroke-width="0.03"></path>
<path id="Path_8236" data-name="Path 8236" d="M68.71,13.08s-.17-.2-.25-.08a.267.267,0,0,0,0,.26S68.71,13.22,68.71,13.08Z" fill="none" stroke="#d08e29" stroke-width="0.03"></path>
<path id="Path_8237" data-name="Path 8237" d="M63.49,14.31s.39,0,.39.16S63.42,14.74,63.49,14.31Z" fill="none" stroke="#d08e29" stroke-width="0.03"></path>
<path id="Path_8238" data-name="Path 8238" d="M62.78,14.29s.27-.06.24.15S62.71,14.74,62.78,14.29Z" fill="none" stroke="#d08e29" stroke-width="0.03"></path>
<path id="Path_8239" data-name="Path 8239" d="M61.15,14.27s.19.26,0,.26S60.94,14.29,61.15,14.27Z" fill="none" stroke="#d08e29" stroke-width="0.03"></path>
<path id="Path_8240" data-name="Path 8240" d="M62.58,13.22s.39-.11.39-.42a.3.3,0,0,0-.31-.3s0,.38-.12.5S62.52,13.07,62.58,13.22Z" fill="none" stroke="#d08e29" stroke-width="0.03"></path>
<path id="Path_8241" data-name="Path 8241" d="M66.5,13.47a.91.91,0,0,1,0-.67c.1-.3-.28-.23-.46,0a.394.394,0,0,0,0,.54.91.91,0,0,0,.46.13Z" fill="none" stroke="#d08e29" stroke-width="0.03"></path>
<path id="Path_8242" data-name="Path 8242" d="M60.16,14.18a4.89,4.89,0,0,1-.45.56c-.15.09-.21-.14-.21-.27S60,14.16,60.16,14.18Z" fill="none" stroke="#d08e29" stroke-width="0.03"></path>
<path id="Path_8243" data-name="Path 8243" d="M60.62,13.6s-.12-.32-.23-.53a.4.4,0,0,0-.42-.27c-.21,0-.15.1-.06.28a1.59,1.59,0,0,0,.71.52Z" fill="none" stroke="#d08e29" stroke-width="0.03"></path>
<path id="Path_8244" data-name="Path 8244" d="M90.33,11a2.8,2.8,0,0,1-1,.41c-.38,0-.61-.15-.75-.1s-.41.21-.18.4.24.32.08.48-.31,0-.31-.16-.25-.23-.24-.44.15-.33.55-.35a.7.7,0,0,0-.68-.26,4.56,4.56,0,0,1-1.38.35c-.55,0-1-.61-1.35-.52a6.2,6.2,0,0,1-1.82.52c-.46-.08-.44-.18-.44-.18l-.32.88s-.33-.32-.33-.41.38-.45.45-.48-.12-.26-.27-.25-.18.57-.38.65-.46,0-.42-.21.69-.45.69-.45-.4-.42-.48-.54.17-.07.21-.26.09-.16.2.08.24.65.24.65.14.13.12,0-.12-.43.09-.52a.3.3,0,0,1,.33,0,1.712,1.712,0,0,0,0,.86c.14.24.72.15,1.37-.2,0,0,.9-.5,1.46,0,0,0,.55.4.89.28a3.42,3.42,0,0,0,1-.29.94.94,0,0,1,.92.21,1.52,1.52,0,0,0,1.74-.2c.12-.08.09,0,.09,0v.13Z" fill="none" stroke="#d08e29" stroke-width="0.03"></path>
<path id="Path_8245" data-name="Path 8245" d="M82,10.85a2.78,2.78,0,0,1-.81.21C81,11,81,10.91,81,10.71s.11-.25.36-.25S82.08,10.78,82,10.85Z" fill="none" stroke="#d08e29" stroke-width="0.03"></path>
<path id="Path_8246" data-name="Path 8246" d="M84.27,10.78a4.5,4.5,0,0,1-.59.08c-.28.05-.37,0-.42-.15s0-.17.22-.17S84.09,10.78,84.27,10.78Z" fill="none" stroke="#d08e29" stroke-width="0.03"></path>
<path id="Path_8247" data-name="Path 8247" d="M85.46,11.3s-.08.21.2.21.18.35,0,.49-.22-.29-.37-.29-.17.34-.27.29-.15-.41,0-.49S85.34,11.08,85.46,11.3Z" fill="none" stroke="#d08e29" stroke-width="0.03"></path>
<path id="Path_8248" data-name="Path 8248" d="M87.41,10.43s.11.16,0,.26-.36-.1-.52-.15a1.717,1.717,0,0,0-.52,0s-.14.17.08.17.44,0,.31.09a1.41,1.41,0,0,1-.58.07c-.11,0-.19-.07-.16-.22-.2.06-.35.13-.33,0s.42-.2.68-.17a2.48,2.48,0,0,1,.73.06c.16,0,.22,0,.22-.06S87.34,10.33,87.41,10.43Z" fill="none" stroke="#d08e29" stroke-width="0.03"></path>
<path id="Path_8249" data-name="Path 8249" d="M90.16,10.54s.12.15,0,.15a2.28,2.28,0,0,1-.37,0c-.1,0-.17.09-.25.13a4.55,4.55,0,0,1-.7,0c-.19,0-.55,0-.58-.1s0-.3.09-.22a.31.31,0,0,0,.3.22c.07-.07.12-.24.32-.24s.4.07.6.07S90.16,10.54,90.16,10.54Z" fill="none" stroke="#d08e29" stroke-width="0.03"></path>
<path id="Path_8250" data-name="Path 8250" d="M88.08,10.42s.14.12,0,.17a.12.12,0,0,1-.18-.11C87.94,10.42,88,10.33,88.08,10.42Z" fill="none" stroke="#d08e29" stroke-width="0.03"></path>
<path id="Path_8251" data-name="Path 8251" d="M84.14,10.59s.07,0,.07-.13-.13-.13-.2,0S84,10.59,84.14,10.59Z" fill="none" stroke="#d08e29" stroke-width="0.03"></path>
<path id="Path_8252" data-name="Path 8252" d="M81.09,10.85s.11.1-.12.23a1,1,0,0,1-.72.15,2.62,2.62,0,0,0-.83-.38,4,4,0,0,0-1.12.43,1,1,0,0,1-1.07-.14c-.29-.19-.55-.46-.74-.46a5.33,5.33,0,0,0-1,.4,2.1,2.1,0,0,1-2,0,1.41,1.41,0,0,0-1.71,0,.79.79,0,0,1-.38.19s-.14.56-.2.7-.48,0-.45-.17a3,3,0,0,1,.29-.45h-.25s0,.49-.18.56-.55.06-.5-.08.29-.21.37-.32l.16-.24-.77.21c-.26,0-.38-.1-.38-.3s-.11-.43.28-.35.34.25.73.28a1.06,1.06,0,0,0,.86,0l1.2-.57a1.42,1.42,0,0,1,.91.24,2,2,0,0,0,.86.43,5.89,5.89,0,0,0,1.22-.3,1.89,1.89,0,0,1,1-.37c.3,0,.81.76,1.37.72a7.281,7.281,0,0,0,.82-.31A1,1,0,0,1,80,11a.79.79,0,0,0,1.07-.19Z" fill="none" stroke="#d08e29" stroke-width="0.03"></path>
<path id="Path_8253" data-name="Path 8253" d="M71.1,11a.45.45,0,0,1-.16-.43c.06-.24.06-.67-.13-.67s-.42.22-.34.39a1.94,1.94,0,0,0,.37.71C71,11.06,71.1,11.06,71.1,11Z" fill="none" stroke="#d08e29" stroke-width="0.03"></path>
<path id="Path_8254" data-name="Path 8254" d="M70.6,11s-.33-.43-.42-.53-.32-.24-.35,0S70.32,11,70.6,11Z" fill="none" stroke="#d08e29" stroke-width="0.03"></path>
<path id="Path_8255" data-name="Path 8255" d="M72.38,10.46s-.49.06-.41.13a.53.53,0,0,0,.19,0,.7.7,0,0,1-.34.15.58.58,0,0,1-.43-.15c0-.09,0-.17.41-.21S72.55,10.33,72.38,10.46Z" fill="none" stroke="#d08e29" stroke-width="0.03"></path>
<path id="Path_8256" data-name="Path 8256" d="M73,10.48s.22.06.22-.06-.09-.29-.2-.18S72.91,10.48,73,10.48Z" fill="none" stroke="#d08e29" stroke-width="0.03"></path>
<path id="Path_8257" data-name="Path 8257" d="M73.64,10.78a2,2,0,0,1,.36-.09c.13,0,.18-.1.28-.15a.89.89,0,0,1,.29.09s0,.15.19.13.2-.13.3-.13h.65c.17,0,.05-.09,0-.17s0-.33-.18-.18-.08.26-.09.18a1.84,1.84,0,0,0-.47,0c-.22,0-.47,0-.52.1s-.18-.1-.3,0-.25.2-.28.11-.4-.16-.4-.05S73.48,10.78,73.64,10.78Z" fill="none" stroke="#d08e29" stroke-width="0.03"></path>
<path id="Path_8258" data-name="Path 8258" d="M73.94,10.35s.19,0,.14-.17-.24-.07-.26.06S73.82,10.35,73.94,10.35Z" fill="none" stroke="#d08e29" stroke-width="0.03"></path>
<path id="Path_8259" data-name="Path 8259" d="M76.09,10.46s.29.08.29,0-.09-.41-.19-.25S76,10.35,76.09,10.46Z" fill="none" stroke="#d08e29" stroke-width="0.03"></path>
<path id="Path_8260" data-name="Path 8260" d="M77.16,10.76s.38-.13.46,0a.3.3,0,0,0,.23.14c.13,0,.23-.07.34-.07h.25c.03,0,.33-.09.41-.09s-.23-.21-.37-.21a6.12,6.12,0,0,1-.63,0c-.14,0-.23.08-.36.08S77,10.68,77.16,10.76Z" fill="none" stroke="#d08e29" stroke-width="0.03"></path>
<path id="Path_8261" data-name="Path 8261" d="M81.23,10.35a.39.39,0,0,1-.34.11c-.21,0-.21.13-.41.13s-.36.1-.51.1-.3,0-.21-.1.21-.16.12-.16,0-.07.2-.07a2,2,0,0,0,.6,0,2.4,2.4,0,0,1,.55-.01Z" fill="none" stroke="#d08e29" stroke-width="0.03"></path>
<path id="Path_8262" data-name="Path 8262" d="M79.28,10.33s.14.19.07.26-.25,0-.25-.07S79.12,10.31,79.28,10.33Z" fill="none" stroke="#d08e29" stroke-width="0.03"></path>
<path id="Path_8263" data-name="Path 8263" d="M79.89,11.3a1.73,1.73,0,0,1,.34.41c0,.11-.25.21-.41.08s-.23,0-.23,0l.17-.26c.06-.06-.05-.26-.11-.15s-.06.37-.21.43-.22-.06-.22-.18.32-.36.43-.45S79.89,11.3,79.89,11.3Z" fill="none" stroke="#d08e29" stroke-width="0.03"></path>
<path id="Path_8264" data-name="Path 8264" d="M79.06,11.49a.37.37,0,0,1-.33.22c-.19.06-.25.06-.24,0a.722.722,0,0,1,.39-.27.26.26,0,0,1,.18.05Z" fill="none" stroke="#d08e29" stroke-width="0.03"></path>
<path id="Path_8265" data-name="Path 8265" d="M78.27,11.94s.21.11.21,0-.07-.23-.18-.17S78.27,11.94,78.27,11.94Z" fill="none" stroke="#d08e29" stroke-width="0.03"></path>
<path id="Path_8266" data-name="Path 8266" d="M76.71,11.11a1.41,1.41,0,0,1-.36.4c-.16.14-.26.05-.24-.1s.38-.42.46-.42S76.84,11,76.71,11.11Z" fill="none" stroke="#d08e29" stroke-width="0.03"></path>
<path id="Path_8267" data-name="Path 8267" d="M73.12,11.3a1.06,1.06,0,0,1-.27.41c-.14.21-.25.23-.34.23s-.13-.17-.06-.29S73.05,11.14,73.12,11.3Z" fill="none" stroke="#d08e29" stroke-width="0.03"></path>
<path id="Path_8268" data-name="Path 8268" d="M69.36,10.52s.27.07.27-.09-.15-.3-.29-.15A.142.142,0,0,0,69.36,10.52Z" fill="none" stroke="#d08e29" stroke-width="0.03"></path>
<path id="Path_8269" data-name="Path 8269" d="M68.66,10.48s.2-.05.2-.2-.2-.15-.28,0S68.62,10.52,68.66,10.48Z" fill="none" stroke="#d08e29" stroke-width="0.03"></path>
<path id="Path_8270" data-name="Path 8270" d="M69.57,11.06a.82.82,0,0,0-.58-.21,5.56,5.56,0,0,0-1.06.41,1,1,0,0,1-.86-.18,1.09,1.09,0,0,0-.85-.32c-.22,0-.89.35-1.14.36A3.65,3.65,0,0,1,63.93,11a1.43,1.43,0,0,0-1.13,0,2.1,2.1,0,0,1-1.22.31A1.69,1.69,0,0,1,61,11a4.05,4.05,0,0,1-.2.88c0,.23-.41.23-.39,0a1.88,1.88,0,0,1,.43-.91c-.18-.1-.23-.17-.48,0a4.18,4.18,0,0,1-1.06.37c-.3,0-.41,0-.34-.33s.12-.32.43-.26a2.72,2.72,0,0,0,.71.16c.18,0,.31-.07.26-.14s-.38-.38-.38-.58.38-.28.38-.28.11.69.29.84a4,4,0,0,0,1,.45,3.36,3.36,0,0,0,1.3-.32c.1-.14-.26-.14-.45-.13a4.85,4.85,0,0,0-.7.09c-.08,0-.15-.19-.15-.19a2.81,2.81,0,0,1-.55.17c-.12,0-.09-.17.22-.22l.48-.11a.7.7,0,0,1,.5.05,1.9,1.9,0,0,0,.75.2,2.46,2.46,0,0,0,.81-.09c.22-.05.47-.05.56-.26a8.62,8.62,0,0,0,1,.1c.12-.07.34-.19.34-.07s-.15.18-.43.18-.25.22-.46.22a1.33,1.33,0,0,1-.52-.13s-.58,0-.39.13a1.86,1.86,0,0,0,.91.3,5.83,5.83,0,0,0,1.1-.37c.15-.06.47-.17,1,.22a.93.93,0,0,0,1,.15c.23-.07.82-.43,1.12-.35a1.49,1.49,0,0,1,.5.24Z" fill="none" stroke="#d08e29" stroke-width="0.03"></path>
<path id="Path_8271" data-name="Path 8271" d="M68.42,10.76l-1.28-.07c-.18,0-.52,0-.4-.06a.26.26,0,0,0,.18-.3c0-.2.15-.09.36,0a1.51,1.51,0,0,0,.6.18C68,10.54,68.41,10.52,68.42,10.76Z" fill="none" stroke="#d08e29" stroke-width="0.03"></path>
<path id="Path_8272" data-name="Path 8272" d="M66.05,10.54s.3.05.3-.08-.3-.15-.31,0A.07.07,0,0,0,66.05,10.54Z" fill="none" stroke="#d08e29" stroke-width="0.03"></path>
<path id="Path_8273" data-name="Path 8273" d="M68.71,11.3a5.69,5.69,0,0,0,.15.7c.06.11.19,0,.2-.14s.16,0,.16-.15S68.92,11.3,68.71,11.3Z" fill="none" stroke="#d08e29" stroke-width="0.03"></path>
<path id="Path_8274" data-name="Path 8274" d="M68.62,11.61s-.16.22-.24.1a.289.289,0,0,1,0-.27S68.62,11.51,68.62,11.61Z" fill="none" stroke="#d08e29" stroke-width="0.03"></path>
<path id="Path_8275" data-name="Path 8275" d="M63.42,10.42s.35,0,.35-.18S63.32,10,63.42,10.42Z" fill="none" stroke="#d08e29" stroke-width="0.03"></path>
<path id="Path_8276" data-name="Path 8276" d="M62.71,10.46s.27.06.26-.15S62.62,10,62.71,10.46Z" fill="none" stroke="#d08e29" stroke-width="0.03"></path>
<path id="Path_8277" data-name="Path 8277" d="M61.08,10.48s.19-.3,0-.3A.151.151,0,1,0,61.08,10.48Z" fill="none" stroke="#d08e29" stroke-width="0.03"></path>
<path id="Path_8278" data-name="Path 8278" d="M62.52,11.51s.33.14.33.43a.27.27,0,0,1-.27.28s0-.35-.15-.47S62.41,11.71,62.52,11.51Z" fill="none" stroke="#d08e29" stroke-width="0.03"></path>
<path id="Path_8279" data-name="Path 8279" d="M66.42,11.23a1.2,1.2,0,0,0,0,.69c.11.26-.3.22-.45,0a.422.422,0,0,1,0-.56,1.05,1.05,0,0,1,.45-.13Z" fill="none" stroke="#d08e29" stroke-width="0.03"></path>
<path id="Path_8280" data-name="Path 8280" d="M60.09,10.59a4.35,4.35,0,0,0-.46-.57c-.17-.13-.21.11-.21.26S59.86,10.59,60.09,10.59Z" fill="none" stroke="#d08e29" stroke-width="0.03"></path>
<path id="Path_8281" data-name="Path 8281" d="M60.5,11.14a2.74,2.74,0,0,1-.19.57c-.13.23-.18.26-.4.23s-.16-.08-.06-.23S60.31,11.14,60.5,11.14Z" fill="none" stroke="#d08e29" stroke-width="0.03"></path>
<path id="Path_8282" data-name="Path 8282" d="M121.45,13.57a3,3,0,0,0-1-.4c-.32,0-.63.13-.74.09s-.43-.19-.2-.38.24-.38.06-.53-.29,0-.29.2-.24.24-.22.39.14.34.51.36a.61.61,0,0,1-.62.3,7.34,7.34,0,0,0-1.37-.37c-.6,0-1,.62-1.39.54a7.781,7.781,0,0,0-1.84-.49c-.31,0-.4.13-.4.13l-.34-.82s-.35.29-.35.41a4.911,4.911,0,0,0,.48.41c.11.16-.11.3-.26.28s-.18-.52-.37-.62-.49,0-.44.19.68.45.68.45a2.68,2.68,0,0,0-.46.56c0,.13.15,0,.16.24s.11.17.21-.07.27-.67.27-.67.14-.14.1.05-.1.41.09.49a.48.48,0,0,0,.35.09s-.16-.67,0-.88.71-.18,1.37.17c0,0,.93.49,1.44,0,0,0,.57-.41.87-.35a4.82,4.82,0,0,1,1,.35.81.81,0,0,0,.9-.22,1.54,1.54,0,0,1,1.76.22h.08v-.13Z" fill="none" stroke="#d08e29" stroke-width="0.03"></path>
<path id="Path_8283" data-name="Path 8283" d="M113.1,13.73s-.65-.26-.83-.19-.16.15-.11.31,0,.27.37.22S113.18,13.8,113.1,13.73Z" fill="none" stroke="#d08e29" stroke-width="0.03"></path>
<path id="Path_8284" data-name="Path 8284" d="M115.35,13.77s-.32-.06-.57-.08-.38,0-.43.13,0,.19.23.19S115.2,13.77,115.35,13.77Z" fill="none" stroke="#d08e29" stroke-width="0.03"></path>
<path id="Path_8285" data-name="Path 8285" d="M116.53,13.23a.176.176,0,0,1,.18-.18c.18,0,.22-.39,0-.5s-.18.33-.33.25-.16-.3-.23-.21-.18.35-.07.46S116.44,13.47,116.53,13.23Z" fill="none" stroke="#d08e29" stroke-width="0.03"></path>
<path id="Path_8286" data-name="Path 8286" d="M118.52,14.12s.11-.22,0-.27-.37.05-.55.14a.878.878,0,0,1-.5,0s-.11-.15.12-.15.38,0,.29-.13a2.58,2.58,0,0,0-.55,0c-.14,0-.28.06-.2.19-.23-.05-.35-.1-.35,0s.45.22.69.17a3,3,0,0,0,.73-.06c.17,0,.21,0,.21.06S118.46,14.23,118.52,14.12Z" fill="none" stroke="#d08e29" stroke-width="0.03"></path>
<path id="Path_8287" data-name="Path 8287" d="M121.3,14s.07-.11,0-.14h-.39c-.11,0-.18-.12-.28-.14s-.47,0-.63,0-.57,0-.6.11,0,.26,0,.16.22-.23.31-.19.14.24.37.24.36-.11.56-.11A6.614,6.614,0,0,1,121.3,14Z" fill="none" stroke="#d08e29" stroke-width="0.03"></path>
<path id="Path_8288" data-name="Path 8288" d="M119.16,14.12s.15-.16,0-.22-.2,0-.18.11S119.07,14.18,119.16,14.12Z" fill="none" stroke="#d08e29" stroke-width="0.03"></path>
<path id="Path_8289" data-name="Path 8289" d="M115.21,14s.14,0,.1.11-.11.16-.17,0S115.11,14,115.21,14Z" fill="none" stroke="#d08e29" stroke-width="0.03"></path>
<path id="Path_8290" data-name="Path 8290" d="M112.2,13.73s.07-.1-.13-.26a1,1,0,0,0-.72-.13c-.15.05-.61.39-.85.39a3.37,3.37,0,0,1-1.07-.43,1.26,1.26,0,0,0-1,.09c-.32.24-.61.51-.78.51a5.42,5.42,0,0,1-1.08-.38,2,2,0,0,0-1.91.05,1.5,1.5,0,0,1-1.73-.05l-.36-.22a4.171,4.171,0,0,0-.21-.67c-.07-.13-.54,0-.52.17l.34.46h-.27s0-.52-.17-.57-.55-.06-.52.05.3.26.39.34a1.349,1.349,0,0,0,.15.2,6,6,0,0,0-.74-.13c-.25,0-.39.08-.39.24s-.13.46.26.38.33-.25.74-.36a1.26,1.26,0,0,1,.87.11c.29.17.93.38,1.17.49a1.06,1.06,0,0,0,.92-.21,2.2,2.2,0,0,1,.83-.41,4.92,4.92,0,0,1,1.31.3,1.91,1.91,0,0,0,1,.32c.26,0,.87-.73,1.37-.71l.87.33a1,1,0,0,0,1.23,0,.81.81,0,0,1,1.09.19Z" fill="none" stroke="#d08e29" stroke-width="0.03"></path>
<path id="Path_8291" data-name="Path 8291" d="M102.23,13.69s-.25.16-.21.38.07.7-.06.7-.47-.24-.39-.37a1.26,1.26,0,0,1,.39-.69C102.12,13.58,102.18,13.57,102.23,13.69Z" fill="none" stroke="#d08e29" stroke-width="0.03"></path>
<path id="Path_8292" data-name="Path 8292" d="M101.7,13.69a5,5,0,0,0-.44.54c-.06.17-.28.21-.33-.11S101.43,13.63,101.7,13.69Z" fill="none" stroke="#d08e29" stroke-width="0.03"></path>
<path id="Path_8293" data-name="Path 8293" d="M103.53,14.12s-.56-.06-.45-.11a.53.53,0,0,1,.21,0,.9.9,0,0,0-.36-.11c-.19,0-.38.05-.4.14s0,.17.36.19S103.63,14.29,103.53,14.12Z" fill="none" stroke="#d08e29" stroke-width="0.03"></path>
<path id="Path_8294" data-name="Path 8294" d="M104.1,14.07s.2,0,.2.16-.1.24-.2.17S104,14.07,104.1,14.07Z" fill="none" stroke="#d08e29" stroke-width="0.03"></path>
<path id="Path_8295" data-name="Path 8295" d="M104.72,13.82a2.42,2.42,0,0,0,.41.08c.08,0,.17.11.24.11h.32a.14.14,0,0,1,.15-.14,1.21,1.21,0,0,1,.31.05c.12,0,.34,0,.34.11s.2,0,.32,0,.08,0,0,.13,0,.32-.16.19-.06-.3-.12-.19-.22.06-.44.06-.48,0-.5-.11-.22.16-.33,0S105,13.9,105,14s-.39.17-.39,0S104.62,13.8,104.72,13.82Z" fill="none" stroke="#d08e29" stroke-width="0.03"></path>
<path id="Path_8296" data-name="Path 8296" d="M105.06,14.25a.135.135,0,0,1,.13.17c-.02.17-.24.09-.28,0S104.91,14.25,105.06,14.25Z" fill="none" stroke="#d08e29" stroke-width="0.03"></path>
<path id="Path_8297" data-name="Path 8297" d="M107.17,14.12s.33-.11.33.06-.09.37-.2.24S107.06,14.25,107.17,14.12Z" fill="none" stroke="#d08e29" stroke-width="0.03"></path>
<path id="Path_8298" data-name="Path 8298" d="M108.25,13.82a1.58,1.58,0,0,0,.47,0c.09,0,.12-.13.23-.13a2.341,2.341,0,0,1,.33.09c.12.02.26-.05.3,0a1.16,1.16,0,0,0,.4.08c.08,0-.25.16-.39.16s-.51.06-.64.06-.23-.11-.37-.11S108.07,13.9,108.25,13.82Z" fill="none" stroke="#d08e29" stroke-width="0.03"></path>
<path id="Path_8299" data-name="Path 8299" d="M112.35,14.18a.52.52,0,0,0-.36-.11c-.19,0-.24-.11-.41-.11s-.34-.06-.54-.06-.26,0-.16.06.16.2.07.2h.82A.991.991,0,0,0,112.35,14.18Z" fill="none" stroke="#d08e29" stroke-width="0.03"></path>
<path id="Path_8300" data-name="Path 8300" d="M110.41,14.25s.09-.24,0-.26a.12.12,0,0,0-.21.07C110.23,14.18,110.23,14.29,110.41,14.25Z" fill="none" stroke="#d08e29" stroke-width="0.03"></path>
<path id="Path_8301" data-name="Path 8301" d="M111,13.28s.34-.28.34-.4-.2-.22-.38-.08-.25,0-.25,0a2.841,2.841,0,0,1,.2.31c.05.06,0,.23-.14.15s-.06-.38-.18-.46-.24,0-.21.2.31.34.39.39a.26.26,0,0,0,.23-.11Z" fill="none" stroke="#d08e29" stroke-width="0.03"></path>
<path id="Path_8302" data-name="Path 8302" d="M110.16,13.11a.38.38,0,0,0-.31-.23c-.21-.08-.26-.08-.25,0a1.16,1.16,0,0,0,.38.27A.29.29,0,0,0,110.16,13.11Z" fill="none" stroke="#d08e29" stroke-width="0.03"></path>
<path id="Path_8303" data-name="Path 8303" d="M109.39,12.63s.2-.13.2,0-.11.25-.18.17A.153.153,0,0,1,109.39,12.63Z" fill="none" stroke="#d08e29" stroke-width="0.03"></path>
<path id="Path_8304" data-name="Path 8304" d="M107.79,13.47a1.92,1.92,0,0,0-.3-.39c-.19-.14-.32,0-.22.14a1.07,1.07,0,0,0,.39.36C107.73,13.58,107.94,13.63,107.79,13.47Z" fill="none" stroke="#d08e29" stroke-width="0.03"></path>
<path id="Path_8305" data-name="Path 8305" d="M104.2,13.3a1.19,1.19,0,0,0-.25-.42c-.15-.16-.26-.25-.34-.22a.163.163,0,0,0,0,.28C103.74,13,104.18,13.41,104.2,13.3Z" fill="none" stroke="#d08e29" stroke-width="0.03"></path>
<path id="Path_8306" data-name="Path 8306" d="M100.46,14.07s.3-.06.28.11-.15.29-.28.22S100.46,14.07,100.46,14.07Z" fill="none" stroke="#d08e29" stroke-width="0.03"></path>
<path id="Path_8307" data-name="Path 8307" d="M99.8,14.12a.22.22,0,0,1,.13.28c0,.11-.13.07-.23,0a.18.18,0,0,1,.1-.28Z" fill="none" stroke="#d08e29" stroke-width="0.03"></path>
<path id="Path_8308" data-name="Path 8308" d="M100.69,13.57a.91.91,0,0,1-.6.2,3.25,3.25,0,0,1-1-.43,1.07,1.07,0,0,0-.88.23,1.63,1.63,0,0,1-.85.33c-.19,0-.84-.33-1.11-.38a2.53,2.53,0,0,0-1.17.21,1.67,1.67,0,0,1-1.14-.1,3,3,0,0,0-1.2-.29,1.62,1.62,0,0,0-.56.35,4.78,4.78,0,0,0-.18-.9c-.08-.24-.43-.22-.41,0a2.39,2.39,0,0,0,.41.91c-.13.11-.21.15-.46.06a3.51,3.51,0,0,0-1.07-.38c-.3,0-.41,0-.33.34s.11.28.4.26a2.46,2.46,0,0,1,.76-.17c.14,0,.29,0,.24.08s-.39.46-.32.61a1.139,1.139,0,0,0,.32.32s.15-.71.33-.84a2.2,2.2,0,0,1,1-.47,4,4,0,0,1,1.28.3c.13.17-.27.17-.48.14a2.38,2.38,0,0,1-.64-.1c-.12,0-.16.2-.16.2a4.09,4.09,0,0,0-.54-.16c-.13,0-.09.16.22.22a2,2,0,0,1,.48.13.82.82,0,0,0,.48-.07A1.35,1.35,0,0,1,94.2,14h.76c.22,0,.49.06.57.28a5.84,5.84,0,0,1,1-.06c.12,0,.34.19.34.06s-.16-.23-.42-.23-.25-.16-.47-.16a2.12,2.12,0,0,0-.55.11s-.56,0-.38-.11a1.41,1.41,0,0,1,.93-.27,6.47,6.47,0,0,1,1.13.27c.15.11.43.22,1-.17a.91.91,0,0,1,1-.16c.22.06.84.44,1.13.33s.53-.21.53-.21Z" fill="none" stroke="#d08e29" stroke-width="0.03"></path>
<path id="Path_8309" data-name="Path 8309" d="M99.54,13.9H98.25c-.19,0-.52,0-.4.11a.25.25,0,0,1,.15.3c0,.2.21.09.4,0a1.45,1.45,0,0,1,.55-.21C99.09,14.06,99.56,14.12,99.54,13.9Z" fill="none" stroke="#d08e29" stroke-width="0.03"></path>
<path id="Path_8310" data-name="Path 8310" d="M97.2,14.06s.27-.05.27.12-.29.13-.32.05a.14.14,0,0,1,.05-.17Z" fill="none" stroke="#d08e29" stroke-width="0.03"></path>
<path id="Path_8311" data-name="Path 8311" d="M99.8,13.3s.11-.51.13-.67.22,0,.25.16.17,0,.17.15S100,13.3,99.8,13.3Z" fill="none" stroke="#d08e29" stroke-width="0.03"></path>
<path id="Path_8312" data-name="Path 8312" d="M99.73,13s-.17-.2-.22-.1-.05.27,0,.27S99.73,13.15,99.73,13Z" fill="none" stroke="#d08e29" stroke-width="0.03"></path>
<path id="Path_8313" data-name="Path 8313" d="M94.49,14.27s.41-.09.41.15S94.42,14.68,94.49,14.27Z" fill="none" stroke="#d08e29" stroke-width="0.03"></path>
<path id="Path_8314" data-name="Path 8314" d="M93.77,14.18s.32,0,.26.22S93.72,14.64,93.77,14.18Z" fill="none" stroke="#d08e29" stroke-width="0.03"></path>
<path id="Path_8315" data-name="Path 8315" d="M92.2,14.18s.19.29,0,.29S91.91,14.18,92.2,14.18Z" fill="none" stroke="#d08e29" stroke-width="0.03"></path>
<path id="Path_8316" data-name="Path 8316" d="M93.59,13.15S94,13,94,12.74a.31.31,0,0,0-.31-.32s0,.38-.11.48S93.55,13,93.59,13.15Z" fill="none" stroke="#d08e29" stroke-width="0.03"></path>
<path id="Path_8317" data-name="Path 8317" d="M97.51,13.39a1.05,1.05,0,0,1,0-.65c.16-.3-.28-.24-.4,0s-.17.41,0,.52a.65.65,0,0,0,.4.13Z" fill="none" stroke="#d08e29" stroke-width="0.03"></path>
<path id="Path_8318" data-name="Path 8318" d="M91.19,14.06s-.35.47-.45.56-.19-.11-.21-.2S91,14.06,91.19,14.06Z" fill="none" stroke="#d08e29" stroke-width="0.03"></path>
<path id="Path_8319" data-name="Path 8319" d="M91.64,13.52s-.1-.3-.23-.58-.16-.22-.39-.2-.18.06-.08.26a1.76,1.76,0,0,0,.7.52Z" fill="none" stroke="#d08e29" stroke-width="0.03"></path>
<path id="Path_8320" data-name="Path 8320" d="M121.32,10.91a3.18,3.18,0,0,1-1,.39c-.34,0-.63-.16-.75-.11s-.41.24-.15.4.22.35,0,.51-.31,0-.31-.18-.25-.24-.2-.43.14-.35.49-.37a.6.6,0,0,0-.63-.27c-.29.06-.89.45-1.41.38s-1-.6-1.33-.54c-.51.09-1.37.61-1.84.52a1.59,1.59,0,0,1-.43-.15l-.32.81s-.37-.28-.34-.36a1.54,1.54,0,0,1,.49-.45c.09-.11-.14-.28-.33-.26s-.13.54-.34.64-.46,0-.39-.21.64-.45.64-.45a6.433,6.433,0,0,1-.46-.54c0-.11.15-.11.15-.29s.16-.15.24.1.23.66.23.66.12.14.12,0-.13-.44.09-.55a.32.32,0,0,1,.35,0s-.13.63,0,.82.68.17,1.36-.15c0,0,.9-.49,1.46,0a2.13,2.13,0,0,0,.88.33,7.33,7.33,0,0,0,1-.33.79.79,0,0,1,.9.17,1.44,1.44,0,0,0,1.77-.17c.1-.09,0,0,0,0l.05.1Z" fill="none" stroke="#d08e29" stroke-width="0.03"></path>
<path id="Path_8321" data-name="Path 8321" d="M113,10.78s-.62.25-.84.17-.16-.15-.07-.32.06-.27.35-.21S113.09,10.69,113,10.78Z" fill="none" stroke="#d08e29" stroke-width="0.03"></path>
<path id="Path_8322" data-name="Path 8322" d="M115.27,10.71a2.9,2.9,0,0,1-.6.07c-.23,0-.35,0-.4-.15s0-.17.2-.17a3.63,3.63,0,0,1,.8.25Z" fill="none" stroke="#d08e29" stroke-width="0.03"></path>
<path id="Path_8323" data-name="Path 8323" d="M116.49,11.23s-.11.21.2.21.18.33,0,.5-.25-.33-.36-.29-.18.35-.25.22-.18-.36-.11-.43S116.37,11,116.49,11.23Z" fill="none" stroke="#d08e29" stroke-width="0.03"></path>
<path id="Path_8324" data-name="Path 8324" d="M118.41,10.33s.12.19,0,.26-.34-.07-.52-.11a1.777,1.777,0,0,0-.48,0s-.14.13,0,.13.47,0,.34.12a1.46,1.46,0,0,1-.55.07c-.12,0-.25-.09-.18-.24-.23.09-.36.14-.34,0s.42-.19.7-.19a3.42,3.42,0,0,1,.72.11c.15.06.21,0,.21-.1S118.34,10.24,118.41,10.33Z" fill="none" stroke="#d08e29" stroke-width="0.03"></path>
<path id="Path_8325" data-name="Path 8325" d="M121.2,10.46s.1.13,0,.17h-.4c-.09,0-.16.1-.25.17a3.48,3.48,0,0,1-.67,0c-.21,0-.53,0-.61-.1s.08-.26.11-.18.19.26.27.19.16-.23.4-.23.34.06.55.06A4.114,4.114,0,0,0,121.2,10.46Z" fill="none" stroke="#d08e29" stroke-width="0.03"></path>
<path id="Path_8326" data-name="Path 8326" d="M119.1,10.33s.14.15.06.21-.25,0-.23-.11S119,10.24,119.1,10.33Z" fill="none" stroke="#d08e29" stroke-width="0.03"></path>
<path id="Path_8327" data-name="Path 8327" d="M115.14,10.52s.11,0,.07-.16-.13-.12-.18,0S115,10.52,115.14,10.52Z" fill="none" stroke="#d08e29" stroke-width="0.03"></path>
<path id="Path_8328" data-name="Path 8328" d="M112.11,10.78s.09.08-.14.21a.94.94,0,0,1-.7.15c-.16,0-.59-.36-.86-.36a4.42,4.42,0,0,0-1,.41,1.29,1.29,0,0,1-1.11-.08c-.28-.25-.57-.52-.73-.52a8.05,8.05,0,0,0-1.07.4,2,2,0,0,1-1.92,0,1.44,1.44,0,0,0-1.69.08,1.11,1.11,0,0,1-.4.18,6.081,6.081,0,0,1-.19.71c-.11.08-.53-.05-.5-.17a3.061,3.061,0,0,1,.31-.45h-.28s0,.53-.16.56-.54.06-.5-.07.28-.23.36-.35a.64.64,0,0,0,.16-.18,4.59,4.59,0,0,1-.71.17c-.28,0-.42-.13-.42-.31s-.11-.43.28-.34.33.28.7.3a1.67,1.67,0,0,0,.92-.05,6.32,6.32,0,0,1,1.16-.53,1.4,1.4,0,0,1,.92.21,1.57,1.57,0,0,0,.85.41,3.89,3.89,0,0,0,1.23-.3c.24-.06.49-.36,1-.36.28,0,.86.77,1.39.68,0,0,.53-.15.86-.29a1,1,0,0,1,1.22,0,.79.79,0,0,0,1.08-.17Z" fill="none" stroke="#d08e29" stroke-width="0.03"></path>
<path id="Path_8329" data-name="Path 8329" d="M102.14,10.86s-.26-.17-.18-.4,0-.67-.09-.67-.47.23-.39.39.22.58.39.67S102.14,11,102.14,10.86Z" fill="none" stroke="#d08e29" stroke-width="0.03"></path>
<path id="Path_8330" data-name="Path 8330" d="M101.62,10.86a4.42,4.42,0,0,1-.42-.53c-.07-.15-.32-.22-.37.09S101.35,11,101.62,10.86Z" fill="none" stroke="#d08e29" stroke-width="0.03"></path>
<path id="Path_8331" data-name="Path 8331" d="M103.48,10.43s-.59,0-.49.09h.2a.63.63,0,0,1-.35.15.52.52,0,0,1-.4-.15c0-.06,0-.12.4-.21S103.57,10.24,103.48,10.43Z" fill="none" stroke="#d08e29" stroke-width="0.03"></path>
<path id="Path_8332" data-name="Path 8332" d="M104,10.43s.21,0,.21-.12-.07-.26-.17-.13S103.89,10.43,104,10.43Z" fill="none" stroke="#d08e29" stroke-width="0.03"></path>
<path id="Path_8333" data-name="Path 8333" d="M104.64,10.71l.38-.12c.11,0,.19-.07.29-.07h.28s0,.15.19.15.2-.15.31-.15a1.16,1.16,0,0,0,.32,0c0-.06.16,0,.29,0s.11-.08,0-.12,0-.35-.16-.24,0,.28-.12.24a1.019,1.019,0,0,0-.47-.09c-.29,0-.46,0-.5.13s-.17-.15-.31,0-.22.16-.31.09-.31-.17-.31-.06S104.55,10.76,104.64,10.71Z" fill="none" stroke="#d08e29" stroke-width="0.03"></path>
<path id="Path_8334" data-name="Path 8334" d="M105,10.28s.18,0,.18-.17-.29-.09-.3,0S104.84,10.28,105,10.28Z" fill="none" stroke="#d08e29" stroke-width="0.03"></path>
<path id="Path_8335" data-name="Path 8335" d="M107.11,10.42s.33,0,.33-.09-.11-.38-.21-.22S107,10.28,107.11,10.42Z" fill="none" stroke="#d08e29" stroke-width="0.03"></path>
<path id="Path_8336" data-name="Path 8336" d="M108.19,10.69s.39-.1.45-.06.09.15.23.15.23-.09.32-.09.24.07.28,0,.34-.06.45-.1-.28-.16-.44-.16-.47-.07-.61-.07-.26.1-.36.12S108,10.59,108.19,10.69Z" fill="none" stroke="#d08e29" stroke-width="0.03"></path>
<path id="Path_8337" data-name="Path 8337" d="M112.22,10.28s-.06.15-.31.14-.24.1-.41.12a2.94,2.94,0,0,0-.53.09c-.16,0-.29,0-.16-.09s.16-.19.07-.19h.23a5.59,5.59,0,0,0,.58,0,2.36,2.36,0,0,1,.53-.07Z" fill="none" stroke="#d08e29" stroke-width="0.03"></path>
<path id="Path_8338" data-name="Path 8338" d="M110.32,10.24s.11.22,0,.28-.26,0-.24-.06S110.14,10.22,110.32,10.24Z" fill="none" stroke="#d08e29" stroke-width="0.03"></path>
<path id="Path_8339" data-name="Path 8339" d="M110.93,11.21a2.23,2.23,0,0,1,.31.4c0,.1-.21.22-.4.1s-.23,0-.23,0,.17-.24.2-.27-.07-.27-.13-.15-.07.39-.18.45-.27,0-.23-.2a.646.646,0,0,1,.41-.4A.345.345,0,0,1,110.93,11.21Z" fill="none" stroke="#d08e29" stroke-width="0.03"></path>
<path id="Path_8340" data-name="Path 8340" d="M110.09,11.43a.46.46,0,0,1-.33.23c-.18.05-.28.05-.22,0s.27-.27.38-.27a.16.16,0,0,1,.17.04Z" fill="none" stroke="#d08e29" stroke-width="0.03"></path>
<path id="Path_8341" data-name="Path 8341" d="M109.32,11.86s.16.14.16,0-.07-.21-.14-.15a.09.09,0,0,0-.02.15Z" fill="none" stroke="#d08e29" stroke-width="0.03"></path>
<path id="Path_8342" data-name="Path 8342" d="M107.73,11.06a1.81,1.81,0,0,1-.36.38c-.14.12-.26,0-.23-.14a.9.9,0,0,1,.47-.35S107.84,10.91,107.73,11.06Z" fill="none" stroke="#d08e29" stroke-width="0.03"></path>
<path id="Path_8343" data-name="Path 8343" d="M104.13,11.19a1.32,1.32,0,0,1-.24.47c-.2.17-.26.21-.38.2s-.1-.15,0-.27S104.07,11.08,104.13,11.19Z" fill="none" stroke="#d08e29" stroke-width="0.03"></path>
<path id="Path_8344" data-name="Path 8344" d="M100.4,10.46s.29.06.25-.11-.14-.28-.29-.17S100.4,10.46,100.4,10.46Z" fill="none" stroke="#d08e29" stroke-width="0.03"></path>
<path id="Path_8345" data-name="Path 8345" d="M99.7,10.43s.21-.08.15-.23-.15-.13-.21,0S99.66,10.46,99.7,10.43Z" fill="none" stroke="#d08e29" stroke-width="0.03"></path>
<path id="Path_8346" data-name="Path 8346" d="M100.59,11a.85.85,0,0,0-.59-.21,8,8,0,0,0-1,.36.79.79,0,0,1-.86-.15,1.2,1.2,0,0,0-.83-.31c-.21,0-.9.38-1.15.38A3.16,3.16,0,0,1,95,10.85a1.52,1.52,0,0,0-1.16.1,2.22,2.22,0,0,1-1.21.26,1.33,1.33,0,0,1-.54-.3,7.812,7.812,0,0,1-.18.92c-.05.17-.44.17-.43-.06a3,3,0,0,1,.43-.86c-.13-.13-.21-.2-.46-.06a6.67,6.67,0,0,1-1,.34c-.31,0-.44,0-.38-.34s.11-.31.41-.26a3.53,3.53,0,0,0,.77.19c.13,0,.27-.07.24-.15s-.38-.39-.33-.56.31-.28.31-.28.15.67.35.8a2.49,2.49,0,0,0,1,.49A3.15,3.15,0,0,0,94,10.76c.13-.17-.23-.17-.43-.17l-.72.12c-.08,0-.1-.19-.1-.19a4.539,4.539,0,0,1-.57.17c-.11,0-.09-.17.2-.23a1.65,1.65,0,0,0,.47-.13.87.87,0,0,1,.53.1,1.91,1.91,0,0,0,.75.16,3,3,0,0,0,.79-.07c.19-.06.5-.06.53-.24a4,4,0,0,0,1,.07c.13,0,.36-.22.36,0s-.19.15-.45.15-.25.22-.47.22a1.35,1.35,0,0,1-.53-.14s-.59,0-.4.15a1.93,1.93,0,0,0,.93.26A3.83,3.83,0,0,0,97,10.63c.14-.09.44-.17,1,.19A1.12,1.12,0,0,0,99,11c.21,0,.84-.45,1.11-.36l.54.22Z" fill="none" stroke="#d08e29" stroke-width="0.03"></path>
<path id="Path_8347" data-name="Path 8347" d="M99.46,10.68h-1.3c-.2,0-.49,0-.38-.09s.17-.08.14-.3.2-.06.4.07a1.15,1.15,0,0,0,.56.15C99,10.46,99.46,10.46,99.46,10.68Z" fill="none" stroke="#d08e29" stroke-width="0.03"></path>
<path id="Path_8348" data-name="Path 8348" d="M97.11,10.48s.28,0,.28-.13-.28-.11-.34,0a.13.13,0,0,0,.06.13Z" fill="none" stroke="#d08e29" stroke-width="0.03"></path>
<path id="Path_8349" data-name="Path 8349" d="M99.73,11.23s.12.54.18.69.18,0,.18-.15.21,0,.21-.16S99.91,11.23,99.73,11.23Z" fill="none" stroke="#d08e29" stroke-width="0.03"></path>
<path id="Path_8350" data-name="Path 8350" d="M99.64,11.56s-.18.21-.23.1a.383.383,0,0,1,0-.25S99.66,11.43,99.64,11.56Z" fill="none" stroke="#d08e29" stroke-width="0.03"></path>
<path id="Path_8351" data-name="Path 8351" d="M94.45,10.33s.36.09.36-.15S94.31,9.89,94.45,10.33Z" fill="none" stroke="#d08e29" stroke-width="0.03"></path>
<path id="Path_8352" data-name="Path 8352" d="M93.7,10.36s.31.07.25-.12S93.63,10,93.7,10.36Z" fill="none" stroke="#d08e29" stroke-width="0.03"></path>
<path id="Path_8353" data-name="Path 8353" d="M92.09,10.43s.2-.3,0-.3A.15.15,0,1,0,92.09,10.43Z" fill="none" stroke="#d08e29" stroke-width="0.03"></path>
<path id="Path_8354" data-name="Path 8354" d="M93.53,11.44s.36.12.36.42a.272.272,0,0,1-.3.28s0-.35-.14-.46S93.45,11.61,93.53,11.44Z" fill="none" stroke="#d08e29" stroke-width="0.03"></path>
<path id="Path_8355" data-name="Path 8355" d="M97.45,11.14a1.07,1.07,0,0,0,0,.69c.13.28-.3.24-.44,0a.42.42,0,0,1,0-.56A.67.67,0,0,1,97.45,11.14Z" fill="none" stroke="#d08e29" stroke-width="0.03"></path>
<path id="Path_8356" data-name="Path 8356" d="M91.1,10.52a3.39,3.39,0,0,0-.47-.57c-.1-.1-.17.12-.21.25S90.92,10.52,91.1,10.52Z" fill="none" stroke="#d08e29" stroke-width="0.03"></path>
<path id="Path_8357" data-name="Path 8357" d="M91.57,11.06s-.13.35-.22.55a.368.368,0,0,1-.41.26c-.23,0-.16-.1-.1-.26a1.69,1.69,0,0,1,.73-.55Z" fill="none" stroke="#d08e29" stroke-width="0.03"></path>
<path id="Path_8358" data-name="Path 8358" d="M152.63,13.47a3,3,0,0,0-1-.39c-.3,0-.61.15-.74.14s-.38-.22-.15-.42.27-.36,0-.51-.28,0-.28.21-.28.22-.25.4.13.32.53.36a.64.64,0,0,1-.63.26,4.61,4.61,0,0,0-1.41-.35c-.5.05-1,.6-1.36.54s-1.39-.6-1.83-.49-.37.12-.37.12l-.36-.84s-.36.3-.36.4.39.38.47.44-.11.29-.29.26-.12-.52-.35-.6-.48-.06-.41.22.66.41.66.41a3.16,3.16,0,0,0-.45.55c0,.11.17.09.19.26s.07.18.18,0a6.938,6.938,0,0,1,.26-.69s.13-.14.13,0-.13.43.06.54a.29.29,0,0,0,.34,0s-.16-.66,0-.88.72-.15,1.41.19c0,0,.87.52,1.41,0a1.79,1.79,0,0,1,.89-.3c.33.06.72.24,1,.32a.74.74,0,0,0,.87-.21,1.57,1.57,0,0,1,1.75.19c.13.11.07.05.07.05l.06-.11Z" fill="none" stroke="#d08e29" stroke-width="0.03"></path>
<path id="Path_8359" data-name="Path 8359" d="M144.33,13.63s-.68-.24-.85-.16-.14.13-.11.3,0,.24.33.24S144.41,13.73,144.33,13.63Z" fill="none" stroke="#d08e29" stroke-width="0.03"></path>
<path id="Path_8360" data-name="Path 8360" d="M146.56,13.71a3.74,3.74,0,0,0-.59-.11c-.25,0-.34,0-.43.17s0,.13.25.13S146.39,13.71,146.56,13.71Z" fill="none" stroke="#d08e29" stroke-width="0.03"></path>
<path id="Path_8361" data-name="Path 8361" d="M147.75,13.17a.18.18,0,0,1,.19-.23c.28,0,.2-.33,0-.44s-.22.29-.36.24-.13-.32-.25-.24a.38.38,0,0,0,0,.44C147.37,13.05,147.65,13.39,147.75,13.17Z" fill="none" stroke="#d08e29" stroke-width="0.03"></path>
<path id="Path_8362" data-name="Path 8362" d="M149.7,14s.12-.16,0-.24-.35.09-.5.13h-.52s-.1-.13.09-.13.43,0,.28-.08a1.231,1.231,0,0,0-.51-.06c-.08,0-.27.06-.18.19-.22-.05-.39-.09-.36,0s.46.19.68.19a2,2,0,0,0,.77-.11c.13,0,.19,0,.19.11S149.66,14.12,149.7,14Z" fill="none" stroke="#d08e29" stroke-width="0.03"></path>
<path id="Path_8363" data-name="Path 8363" d="M152.53,13.9s.05-.13,0-.17h-.37c-.11,0-.17-.08-.29-.14a2.22,2.22,0,0,0-.67-.05c-.19,0-.5,0-.59.15s.09.26.11.17.2-.27.27-.19a.393.393,0,0,0,.33.19h.62C152.14,13.86,152.53,13.9,152.53,13.9Z" fill="none" stroke="#d08e29" stroke-width="0.03"></path>
<path id="Path_8364" data-name="Path 8364" d="M150.4,14.06s.13-.16,0-.21-.26,0-.19.11S150.26,14.12,150.4,14.06Z" fill="none" stroke="#d08e29" stroke-width="0.03"></path>
<path id="Path_8365" data-name="Path 8365" d="M146.42,13.9a.11.11,0,0,1,.11.11c0,.17-.14.11-.18.05A.1.1,0,0,1,146.42,13.9Z" fill="none" stroke="#d08e29" stroke-width="0.03"></path>
<path id="Path_8366" data-name="Path 8366" d="M143.41,13.63s.09-.09-.11-.24a1.19,1.19,0,0,0-.73-.11c-.17,0-.58.41-.85.41a3.06,3.06,0,0,1-1-.47,1.15,1.15,0,0,0-1.09.12c-.34.23-.58.51-.77.51a3.84,3.84,0,0,1-1.08-.44,2.22,2.22,0,0,0-1.94.06,1.41,1.41,0,0,1-1.72-.06.76.76,0,0,0-.36-.15s-.13-.57-.18-.69-.51,0-.48.17a2,2,0,0,0,.28.43h-.24s0-.54-.18-.56-.54,0-.54.05.32.26.38.34l.18.22a4,4,0,0,0-.75-.15c-.26,0-.4.1-.4.27s-.08.43.3.35.29-.28.71-.3a1.17,1.17,0,0,1,.87,0,11.559,11.559,0,0,0,1.15.55,1.48,1.48,0,0,0,.94-.23,2.28,2.28,0,0,1,.89-.43,4.52,4.52,0,0,1,1.21.33,2.25,2.25,0,0,0,1,.33c.3,0,.87-.74,1.38-.7a4.68,4.68,0,0,1,.85.31,1,1,0,0,0,1.22,0,.85.85,0,0,1,1.12.16Z" fill="none" stroke="#d08e29" stroke-width="0.03"></path>
<path id="Path_8367" data-name="Path 8367" d="M133.41,13.6a.38.38,0,0,0-.14.41c0,.28,0,.67-.11.67s-.46-.21-.4-.39a4,4,0,0,1,.4-.66C133.31,13.52,133.41,13.52,133.41,13.6Z" fill="none" stroke="#d08e29" stroke-width="0.03"></path>
<path id="Path_8368" data-name="Path 8368" d="M132.92,13.6a5.769,5.769,0,0,0-.43.56c-.07.13-.3.24-.33-.1S132.64,13.57,132.92,13.6Z" fill="none" stroke="#d08e29" stroke-width="0.03"></path>
<path id="Path_8369" data-name="Path 8369" d="M134.74,14h-.45a.56.56,0,0,1,.21-.06.73.73,0,0,0-.36-.13.66.66,0,0,0-.42.13c-.05.06,0,.16.42.22S134.82,14.18,134.74,14Z" fill="none" stroke="#d08e29" stroke-width="0.03"></path>
<path id="Path_8370" data-name="Path 8370" d="M135.34,14s.19,0,.19.11-.08.3-.19.17S135.21,14,135.34,14Z" fill="none" stroke="#d08e29" stroke-width="0.03"></path>
<path id="Path_8371" data-name="Path 8371" d="M136,13.73l.36.12c.1,0,.21.05.31.05h.28a.127.127,0,0,1,.13-.13,1.654,1.654,0,0,1,.32.09h.66c.15,0,.06.06,0,.11s-.05.39-.16.24,0-.29-.12-.24a.9.9,0,0,1-.44.11c-.23,0-.5,0-.52-.11a.28.28,0,0,1-.31,0c-.1-.11-.24-.15-.28-.11s-.34.17-.34.09S135.84,13.73,136,13.73Z" fill="none" stroke="#d08e29" stroke-width="0.03"></path>
<path id="Path_8372" data-name="Path 8372" d="M136.27,14.18s.14.05.12.13-.25.11-.27,0S136.12,14.18,136.27,14.18Z" fill="none" stroke="#d08e29" stroke-width="0.03"></path>
<path id="Path_8373" data-name="Path 8373" d="M138.4,14.06s.31-.1.31,0-.11.44-.2.24S138.3,14.18,138.4,14.06Z" fill="none" stroke="#d08e29" stroke-width="0.03"></path>
<path id="Path_8374" data-name="Path 8374" d="M139.49,13.77s.4.08.44,0a.29.29,0,0,1,.24-.11,2,2,0,0,1,.28,0h.32a1.49,1.49,0,0,0,.42.09c.12,0-.27.19-.4.19s-.48.05-.66.05-.22-.1-.32-.16S139.33,13.85,139.49,13.77Z" fill="none" stroke="#d08e29" stroke-width="0.03"></path>
<path id="Path_8375" data-name="Path 8375" d="M143.54,14.12a.45.45,0,0,0-.34-.11c-.21,0-.23-.11-.41-.11a4.939,4.939,0,0,1-.53-.1c-.14,0-.27,0-.14.1s.14.16,0,.16.08.06.25.06a2.3,2.3,0,0,1,.59,0,1.68,1.68,0,0,0,.58,0Z" fill="none" stroke="#d08e29" stroke-width="0.03"></path>
<path id="Path_8376" data-name="Path 8376" d="M141.59,14.18s.13-.19,0-.28-.22,0-.22.09a.19.19,0,0,0,.22.19Z" fill="none" stroke="#d08e29" stroke-width="0.03"></path>
<path id="Path_8377" data-name="Path 8377" d="M142.19,13.22a2.45,2.45,0,0,0,.33-.42c0-.11-.23-.19-.39-.08a.22.22,0,0,1-.23,0,1.48,1.48,0,0,1,.22.31c0,.06-.06.21-.13.12s-.09-.38-.18-.43a.187.187,0,0,0-.27.16.61.61,0,0,0,.45.4C142.1,13.34,142.19,13.22,142.19,13.22Z" fill="none" stroke="#d08e29" stroke-width="0.03"></path>
<path id="Path_8378" data-name="Path 8378" d="M141.37,13.05a.35.35,0,0,0-.32-.26h-.23a.77.77,0,0,0,.41.28.34.34,0,0,0,.14-.02Z" fill="none" stroke="#d08e29" stroke-width="0.03"></path>
<path id="Path_8379" data-name="Path 8379" d="M140.59,12.57s.18-.13.2,0-.1.23-.17.17a.17.17,0,0,1-.03-.17Z" fill="none" stroke="#d08e29" stroke-width="0.03"></path>
<path id="Path_8380" data-name="Path 8380" d="M139,13.39a3.061,3.061,0,0,0-.31-.39c-.19-.12-.31,0-.24.15a.844.844,0,0,0,.42.37C138.96,13.52,139.14,13.57,139,13.39Z" fill="none" stroke="#d08e29" stroke-width="0.03"></path>
<path id="Path_8381" data-name="Path 8381" d="M135.44,13.26a1.44,1.44,0,0,0-.28-.46c-.18-.19-.25-.21-.36-.19s-.13.18-.06.27S135.39,13.34,135.44,13.26Z" fill="none" stroke="#d08e29" stroke-width="0.03"></path>
<path id="Path_8382" data-name="Path 8382" d="M131.69,14s.24,0,.24.11-.09.3-.25.17S131.69,14,131.69,14Z" fill="none" stroke="#d08e29" stroke-width="0.03"></path>
<path id="Path_8383" data-name="Path 8383" d="M131,14.06s.21.06.14.23-.14.13-.21,0S130.94,14,131,14.06Z" fill="none" stroke="#d08e29" stroke-width="0.03"></path>
<path id="Path_8384" data-name="Path 8384" d="M131.87,13.52a.66.66,0,0,1-.55.17,5,5,0,0,1-1.08-.41,1.12,1.12,0,0,0-.86.19,1.15,1.15,0,0,1-.84.35c-.21-.05-.85-.35-1.12-.41a4.12,4.12,0,0,0-1.18.22,1.48,1.48,0,0,1-1.13-.06,2.12,2.12,0,0,0-1.17-.29,1.68,1.68,0,0,0-.59.32,5.33,5.33,0,0,0-.2-.91c-.05-.19-.4-.19-.38.05a2.58,2.58,0,0,0,.38.89c-.13.1-.18.14-.45.06a5,5,0,0,0-1.06-.39c-.32,0-.4,0-.34.39s.1.27.39.21a5.781,5.781,0,0,1,.76-.17c.18,0,.32.07.25.13s-.38.41-.33.58.33.3.33.3.15-.73.31-.84a2.37,2.37,0,0,1,1-.49,3.55,3.55,0,0,1,1.27.36c.11.13-.28.13-.49.13a2.48,2.48,0,0,1-.66-.1c-.1,0-.12.19-.12.19a4.461,4.461,0,0,0-.61-.17c-.11,0,0,.17.27.19a1.21,1.21,0,0,1,.46.17.78.78,0,0,0,.48-.12,2.38,2.38,0,0,1,.78-.16,3.51,3.51,0,0,1,.79.06c.22,0,.47,0,.57.27a4.29,4.29,0,0,1,1-.11c.11.06.34.19.34.06S128,14,127.68,14s-.26-.19-.47-.19a1.82,1.82,0,0,0-.54.08s-.62,0-.42-.08a2,2,0,0,1,1-.28,4.56,4.56,0,0,1,1.09.32,1.19,1.19,0,0,0,1-.17.87.87,0,0,1,1-.17c.19,0,.79.38,1.09.3a2.67,2.67,0,0,0,.51-.22Z" fill="none" stroke="#d08e29" stroke-width="0.03"></path>
<path id="Path_8385" data-name="Path 8385" d="M130.78,13.82h-1.33c-.2,0-.48,0-.38.05s.19.11.19.35.15,0,.34-.07a1,1,0,0,1,.57-.17C130.34,14,130.78,14,130.78,13.82Z" fill="none" stroke="#d08e29" stroke-width="0.03"></path>
<path id="Path_8386" data-name="Path 8386" d="M128.41,14s.28,0,.28.13-.3.15-.33.06a.19.19,0,0,1,.05-.19Z" fill="none" stroke="#d08e29" stroke-width="0.03"></path>
<path id="Path_8387" data-name="Path 8387" d="M131,13.23s.13-.51.14-.66.22,0,.26.12.17,0,.17.19S131.24,13.23,131,13.23Z" fill="none" stroke="#d08e29" stroke-width="0.03"></path>
<path id="Path_8388" data-name="Path 8388" d="M130.94,12.94s-.16-.2-.23-.14,0,.28.07.28S130.94,13.08,130.94,12.94Z" fill="none" stroke="#d08e29" stroke-width="0.03"></path>
<path id="Path_8389" data-name="Path 8389" d="M125.72,14.18s.39-.06.39.13S125.64,14.6,125.72,14.18Z" fill="none" stroke="#d08e29" stroke-width="0.03"></path>
<path id="Path_8390" data-name="Path 8390" d="M125,14.12s.28-.06.24.17S124.94,14.58,125,14.12Z" fill="none" stroke="#d08e29" stroke-width="0.03"></path>
<path id="Path_8391" data-name="Path 8391" d="M123.38,14.07s.23.35,0,.35S123.13,14.12,123.38,14.07Z" fill="none" stroke="#d08e29" stroke-width="0.03"></path>
<path id="Path_8392" data-name="Path 8392" d="M124.81,13.08s.39-.14.39-.45a.265.265,0,0,0-.3-.28s0,.37-.15.48S124.75,12.9,124.81,13.08Z" fill="none" stroke="#d08e29" stroke-width="0.03"></path>
<path id="Path_8393" data-name="Path 8393" d="M128.73,13.3a1,1,0,0,1,0-.67c.16-.26-.3-.21-.43,0a.464.464,0,0,0,0,.59.91.91,0,0,0,.43.08Z" fill="none" stroke="#d08e29" stroke-width="0.03"></path>
<path id="Path_8394" data-name="Path 8394" d="M122.42,14s-.35.46-.45.57-.23-.14-.23-.27S122.2,14,122.42,14Z" fill="none" stroke="#d08e29" stroke-width="0.03"></path>
<path id="Path_8395" data-name="Path 8395" d="M122.88,13.41s-.11-.26-.24-.51-.19-.27-.44-.27-.16.11-.06.27a1.31,1.31,0,0,0,.74.51Z" fill="none" stroke="#d08e29" stroke-width="0.03"></path>
<path id="Path_8396" data-name="Path 8396" d="M152.56,10.82a2.59,2.59,0,0,1-1,.41c-.34,0-.62-.17-.75-.11s-.43.22-.18.39.25.35.1.49a.2.2,0,0,1-.35-.14c0-.2-.23-.25-.21-.43s.17-.35.55-.37a.83.83,0,0,0-.67-.28,4.79,4.79,0,0,1-1.41.36c-.48,0-.93-.6-1.34-.55s-1.38.62-1.82.53A1,1,0,0,1,145,11l-.29.86s-.37-.32-.36-.4a5,5,0,0,1,.46-.48c.08-.1-.1-.26-.26-.19s-.16.5-.37.62-.5,0-.41-.24.65-.45.65-.45a4.55,4.55,0,0,1-.5-.56c0-.11.19-.06.19-.24s.14-.17.23.06l.26.68s.11.15.11,0-.14-.41.1-.52a.3.3,0,0,1,.33,0s-.15.64,0,.81.71.2,1.37-.1c0,0,.92-.54,1.44,0a1.89,1.89,0,0,0,.88.3c.35-.11.73-.28,1-.35a.76.76,0,0,1,.91.2,1.62,1.62,0,0,0,1.77-.2c.06-.08,0,0,0,0v.1Z" fill="none" stroke="#d08e29" stroke-width="0.03"></path>
<path id="Path_8397" data-name="Path 8397" d="M144.26,10.69s-.67.26-.87.17-.14-.1-.08-.32,0-.23.33-.23S144.29,10.59,144.26,10.69Z" fill="none" stroke="#d08e29" stroke-width="0.03"></path>
<path id="Path_8398" data-name="Path 8398" d="M146.5,10.63l-.6.13c-.27,0-.36-.07-.44-.22s0-.12.26-.12S146.34,10.63,146.5,10.63Z" fill="none" stroke="#d08e29" stroke-width="0.03"></path>
<path id="Path_8399" data-name="Path 8399" d="M147.69,11.14a.18.18,0,0,0,.2.24c.25,0,.19.33,0,.48s-.24-.3-.37-.27-.15.33-.27.24-.13-.39,0-.45S147.58,11,147.69,11.14Z" fill="none" stroke="#d08e29" stroke-width="0.03"></path>
<path id="Path_8400" data-name="Path 8400" d="M149.64,10.28s.1.18,0,.24-.37-.06-.55-.09a1.66,1.66,0,0,0-.47-.07s-.14.18.06.18.45,0,.28.09a1.06,1.06,0,0,1-.5.06c-.13,0-.24-.06-.19-.21-.22.06-.36.11-.36,0a1.51,1.51,0,0,1,.71-.2,4.644,4.644,0,0,1,.73.08c.15.03.19,0,.19,0S149.58,10.18,149.64,10.28Z" fill="none" stroke="#d08e29" stroke-width="0.03"></path>
<path id="Path_8401" data-name="Path 8401" d="M152.43,10.43s.1.09,0,.11h-.4a.4.4,0,0,0-.22.15,2.3,2.3,0,0,1-.7,0c-.15,0-.54,0-.6-.12s.06-.28.11-.16.19.2.28.16.15-.23.38-.23.32.1.57.1Z" fill="none" stroke="#d08e29" stroke-width="0.03"></path>
<path id="Path_8402" data-name="Path 8402" d="M150.32,10.24s.16.19,0,.22-.23,0-.21-.13S150.16,10.18,150.32,10.24Z" fill="none" stroke="#d08e29" stroke-width="0.03"></path>
<path id="Path_8403" data-name="Path 8403" d="M146.35,10.46s.11,0,.07-.15-.13-.13-.14,0S146.28,10.46,146.35,10.46Z" fill="none" stroke="#d08e29" stroke-width="0.03"></path>
<path id="Path_8404" data-name="Path 8404" d="M143.34,10.69s.07.11-.14.26a1.1,1.1,0,0,1-.71.11c-.2,0-.61-.37-.86-.37a3.12,3.12,0,0,0-1.07.43,1,1,0,0,1-1.07-.09,2.35,2.35,0,0,0-.74-.51,5.31,5.31,0,0,0-1.11.43,2,2,0,0,1-1.91,0,1.5,1.5,0,0,0-1.7,0,2.051,2.051,0,0,1-.4.19,3.05,3.05,0,0,1-.19.69c0,.17-.52,0-.47-.15a2.247,2.247,0,0,1,.3-.45h-.24s0,.54-.18.56-.59.06-.55-.06a2,2,0,0,1,.38-.33c.08-.08.21-.24.21-.24a7.149,7.149,0,0,1-.78.2c-.27,0-.39-.11-.36-.28s-.15-.43.24-.35.31.24.71.28a1.08,1.08,0,0,0,.89,0c.32-.17.93-.43,1.15-.52a1.21,1.21,0,0,1,.95.2,2,2,0,0,0,.86.43,5.93,5.93,0,0,0,1.26-.3,1.67,1.67,0,0,1,1-.34c.28,0,.86.72,1.34.69a6.16,6.16,0,0,0,.89-.33,1.06,1.06,0,0,1,1.24,0,.86.86,0,0,0,1.08-.19Z" fill="none" stroke="#d08e29" stroke-width="0.03"></path>
<path id="Path_8405" data-name="Path 8405" d="M133.37,10.78a.45.45,0,0,1-.21-.42c.07-.23.07-.68-.1-.68s-.42.27-.38.39a1.756,1.756,0,0,0,.42.71C133.28,10.88,133.34,10.91,133.37,10.78Z" fill="none" stroke="#d08e29" stroke-width="0.03"></path>
<path id="Path_8406" data-name="Path 8406" d="M132.85,10.78s-.36-.42-.43-.54-.31-.22-.35.09S132.57,10.85,132.85,10.78Z" fill="none" stroke="#d08e29" stroke-width="0.03"></path>
<path id="Path_8407" data-name="Path 8407" d="M134.67,10.33s-.53,0-.46.13h.21a1.08,1.08,0,0,1-.35.13.55.55,0,0,1-.44-.17s0-.15.42-.22S134.74,10.18,134.67,10.33Z" fill="none" stroke="#d08e29" stroke-width="0.03"></path>
<path id="Path_8408" data-name="Path 8408" d="M135.22,10.35s.22.07.22-.11-.09-.23-.17-.15S135.16,10.35,135.22,10.35Z" fill="none" stroke="#d08e29" stroke-width="0.03"></path>
<path id="Path_8409" data-name="Path 8409" d="M135.85,10.63l.38-.11c.13,0,.18-.09.29-.09a1.83,1.83,0,0,1,.26,0s0,.13.2.13.2-.11.32-.11a1.57,1.57,0,0,0,.34,0h.29c.12,0,.08,0,0-.13s0-.32-.16-.2,0,.29-.11.2-.23-.09-.5-.09a.82.82,0,0,0-.49.11.27.27,0,0,0-.3,0c-.1.11-.25.17-.3.11s-.33-.18-.33,0S135.76,10.63,135.85,10.63Z" fill="none" stroke="#d08e29" stroke-width="0.03"></path>
<path id="Path_8410" data-name="Path 8410" d="M136.19,10.22s.17-.09.12-.2-.26-.07-.28.05S136,10.22,136.19,10.22Z" fill="none" stroke="#d08e29" stroke-width="0.03"></path>
<path id="Path_8411" data-name="Path 8411" d="M138.32,10.31s.28.11.28-.07,0-.35-.16-.22S138.22,10.2,138.32,10.31Z" fill="none" stroke="#d08e29" stroke-width="0.03"></path>
<path id="Path_8412" data-name="Path 8412" d="M139.4,10.59a2.54,2.54,0,0,1,.49-.05c0,.09.08.15.2.15s.22-.06.32-.06a.62.62,0,0,1,.28,0c0-.09.33-.09.42-.11s-.25-.17-.42-.17h-.61c-.15,0-.25.11-.33.12S139.25,10.52,139.4,10.59Z" fill="none" stroke="#d08e29" stroke-width="0.03"></path>
<path id="Path_8413" data-name="Path 8413" d="M143.44,10.2a.38.38,0,0,1-.31.13c-.2,0-.26.13-.43.13a4.5,4.5,0,0,0-.51.08c-.2,0-.29,0-.2-.08s.2-.18.11-.18h.79C143,10.24,143.34,10.13,143.44,10.2Z" fill="none" stroke="#d08e29" stroke-width="0.03"></path>
<path id="Path_8414" data-name="Path 8414" d="M141.52,10.18s.13.18,0,.25-.21,0-.21-.07S141.37,10.13,141.52,10.18Z" fill="none" stroke="#d08e29" stroke-width="0.03"></path>
<path id="Path_8415" data-name="Path 8415" d="M142.13,11.14s.29.29.31.42-.21.19-.36.09a.307.307,0,0,0-.26-.06s.17-.18.22-.25,0-.26-.14-.2-.08.42-.21.51-.22-.06-.22-.22.34-.35.43-.37S142.13,11.14,142.13,11.14Z" fill="none" stroke="#d08e29" stroke-width="0.03"></path>
<path id="Path_8416" data-name="Path 8416" d="M141.33,11.34a.46.46,0,0,1-.34.25h-.26a.85.85,0,0,1,.4-.26.32.32,0,0,1,.2.01Z" fill="none" stroke="#d08e29" stroke-width="0.03"></path>
<path id="Path_8417" data-name="Path 8417" d="M140.52,11.77s.17.15.17,0-.05-.21-.13-.12S140.52,11.77,140.52,11.77Z" fill="none" stroke="#d08e29" stroke-width="0.03"></path>
<path id="Path_8418" data-name="Path 8418" d="M138.94,11a1.71,1.71,0,0,1-.34.43c-.14.06-.28,0-.21-.15s.32-.38.43-.38S139.07,10.82,138.94,11Z" fill="none" stroke="#d08e29" stroke-width="0.03"></path>
<path id="Path_8419" data-name="Path 8419" d="M135.35,11.12a.94.94,0,0,1-.27.47c-.17.16-.26.23-.34.18a.225.225,0,0,1-.07-.26C134.7,11.41,135.32,11,135.35,11.12Z" fill="none" stroke="#d08e29" stroke-width="0.03"></path>
<path id="Path_8420" data-name="Path 8420" d="M131.6,10.36s.27.1.27-.08-.12-.27-.29-.17S131.6,10.36,131.6,10.36Z" fill="none" stroke="#d08e29" stroke-width="0.03"></path>
<path id="Path_8421" data-name="Path 8421" d="M130.94,10.35s.18-.07.13-.22-.13-.11-.22,0a.14.14,0,0,0,.09.22Z" fill="none" stroke="#d08e29" stroke-width="0.03"></path>
<path id="Path_8422" data-name="Path 8422" d="M131.79,10.91a.7.7,0,0,0-.55-.2,4,4,0,0,0-1.06.4,1.14,1.14,0,0,1-.9-.16,1.07,1.07,0,0,0-.82-.36c-.21,0-.86.36-1.16.4a4,4,0,0,1-1.13-.21,1.58,1.58,0,0,0-1.15.07,2.17,2.17,0,0,1-1.17.29,1.12,1.12,0,0,1-.57-.29s-.13.66-.18.9a.22.22,0,0,1-.43,0,2,2,0,0,1,.43-.91.33.33,0,0,0-.46,0,6.06,6.06,0,0,1-1.09.36c-.28,0-.39,0-.35-.34s.12-.32.44-.26a2.6,2.6,0,0,0,.73.17c.16,0,.3-.06.25-.15s-.36-.36-.35-.53.35-.31.35-.31.15.73.29.82a3.44,3.44,0,0,0,1,.47,3.43,3.43,0,0,0,1.26-.31c.1-.16-.26-.16-.45-.14a2.27,2.27,0,0,0-.65.09c-.07,0-.16-.17-.16-.17a5,5,0,0,1-.57.13c-.12,0-.09-.13.21-.17a3.21,3.21,0,0,1,.52-.14.6.6,0,0,1,.44.07,1.94,1.94,0,0,0,.76.17,3.47,3.47,0,0,0,.81-.06c.22-.1.5,0,.56-.28a4.86,4.86,0,0,0,1,.1c.15,0,.35-.21.35-.06s-.13.21-.42.21-.28.16-.46.16a1.78,1.78,0,0,1-.51-.11s-.62,0-.41.11a1.64,1.64,0,0,0,.92.3,3.9,3.9,0,0,0,1.08-.35c.16-.08.47-.18,1,.22a1,1,0,0,0,1,.15c.19-.06.77-.45,1.12-.37a3.59,3.59,0,0,0,.48.24Z" fill="none" stroke="#d08e29" stroke-width="0.03"></path>
<path id="Path_8423" data-name="Path 8423" d="M130.67,10.59l-1.29-.05c-.21,0-.49,0-.41-.08s.2-.1.2-.28.16-.07.35,0a1.3,1.3,0,0,0,.6.2C130.24,10.42,130.67,10.35,130.67,10.59Z" fill="none" stroke="#d08e29" stroke-width="0.03"></path>
<path id="Path_8424" data-name="Path 8424" d="M128.33,10.43s.27,0,.27-.15-.27-.1-.3,0a.17.17,0,0,0,.03.15Z" fill="none" stroke="#d08e29" stroke-width="0.03"></path>
<path id="Path_8425" data-name="Path 8425" d="M130.94,11.14s.13.57.14.69.24,0,.24-.12.16,0,.16-.17S131.12,11.14,130.94,11.14Z" fill="none" stroke="#d08e29" stroke-width="0.03"></path>
<path id="Path_8426" data-name="Path 8426" d="M130.85,11.44s-.18.27-.22.15a.642.642,0,0,1,0-.29S130.87,11.34,130.85,11.44Z" fill="none" stroke="#d08e29" stroke-width="0.03"></path>
<path id="Path_8427" data-name="Path 8427" d="M125.68,10.24s.33.07.33-.13S125.58,9.85,125.68,10.24Z" fill="none" stroke="#d08e29" stroke-width="0.03"></path>
<path id="Path_8428" data-name="Path 8428" d="M124.9,10.31s.31,0,.3-.18S124.87,9.85,124.9,10.31Z" fill="none" stroke="#d08e29" stroke-width="0.03"></path>
<path id="Path_8429" data-name="Path 8429" d="M123.31,10.33s.2-.31,0-.31A.156.156,0,1,0,123.31,10.33Z" fill="none" stroke="#d08e29" stroke-width="0.03"></path>
<path id="Path_8430" data-name="Path 8430" d="M124.75,11.38s.36.11.36.39a.29.29,0,0,1-.3.3s0-.36-.13-.48S124.66,11.54,124.75,11.38Z" fill="none" stroke="#d08e29" stroke-width="0.03"></path>
<path id="Path_8431" data-name="Path 8431" d="M128.65,11.08a1,1,0,0,0,0,.67c.14.25-.32.25-.4,0a.44.44,0,0,1-.05-.54A1,1,0,0,1,128.65,11.08Z" fill="none" stroke="#d08e29" stroke-width="0.03"></path>
<path id="Path_8432" data-name="Path 8432" d="M122.32,10.46s-.32-.51-.46-.57-.19.12-.19.24S122.13,10.46,122.32,10.46Z" fill="none" stroke="#d08e29" stroke-width="0.03"></path>
<path id="Path_8433" data-name="Path 8433" d="M122.79,11s-.12.31-.24.57a.37.37,0,0,1-.42.26c-.22,0-.16-.11-.06-.26a1.71,1.71,0,0,1,.72-.57Z" fill="none" stroke="#d08e29" stroke-width="0.03"></path>
</g>
</g>


</g>
</svg>