<svg xmlns="http://www.w3.org/2000/svg" width="645" height="275.979" viewBox="0 0 645 275.979">
<g id="Kaba" transform="translate(-448 -808)">
<rect id="BG" width="645" height="275.979" rx="10" transform="translate(448 808)" fill="none"></rect>
<g id="Layer_2" data-name="Layer 2" transform="translate(692.75 860)">
<g id="Layer_2-2" data-name="Layer 2" transform="translate(2 -4)">
<g id="Layer_1" data-name="Layer 1">
<path id="Path_5782" data-name="Path 5782" d="M76.83,6c4.47,5.3,16.31,10.41,16.31,10.41,10.69,4.45,21.08,13,21.08,13A82.48,82.48,0,0,1,138.77,66.6c6.13,18,7.64,50.7,7.64,50.7.81,11.57,1.46,40,1.46,40l-.05,22.08h5.74V156.55s-.69-29.41-1.54-41.38c0,0-1.63-33.85-8.3-52.46,0,0-6.26-21.26-26.78-38.16,0,0-7.86-6.45-22.57-13.54A73.4,73.4,0,0,1,76.83,0h0a74.27,74.27,0,0,1-17.6,11C44.49,18.09,36.66,24.54,36.66,24.54,16.15,41.44,9.86,62.7,9.86,62.7,3.2,81.31,1.59,115.16,1.59,115.16.72,127.13,0,156.54,0,156.54l.07,22.83H5.82l-.06-22.08s.68-28.42,1.48-40c0,0,1.47-32.72,7.63-50.65A82.38,82.38,0,0,1,39.39,29.33s10.43-8.52,21.12-13c0,0,11.8-5.11,16.3-10.41Z" fill="#39b24a"></path>
</g>
</g>
</g>


</g>
</svg>