<svg xmlns="http://www.w3.org/2000/svg" width="645" height="275.979" viewBox="0 0 645 275.979">
<g id="Kaba" transform="translate(-448 -808)">
<rect id="BG" width="645" height="275.979" rx="10" transform="translate(448 808)" fill="none"></rect>
<g id="Layer_2" data-name="Layer 2" transform="translate(681.75 854)">
<g id="Layer_1" data-name="Layer 1">
<path id="Path_8434" data-name="Path 8434" d="M150.24,55.42l2.89-1.97.84,1.72-2.72,1.93Z" fill="#fff"></path>
<path id="Path_8435" data-name="Path 8435" d="M15.78,93.93c-.68,2.56-1.31,5.17-2,7.71l1.28.2c-.52,3.31-1,6.68-1.36,10l-2.34-.28.84-6.81-.86-.14.44-3.3,1.2.2c.64-2.59,1.3-5.17,2.1-7.68Zm-2.71,11-.45,3.58.87.09L14,105Z" fill="#bb9a5c"></path>
<path id="Path_8436" data-name="Path 8436" d="M15.78,93.93c-.68,2.56-1.31,5.17-2,7.71l1.28.2c-.52,3.31-1,6.68-1.36,10l-2.34-.28.84-6.81-.86-.14.44-3.3,1.2.2c.64-2.59,1.3-5.17,2.1-7.68Zm-2.71,11-.45,3.58.87.09L14,105Z" fill="#0f1a0f"></path>
<path id="Path_8437" data-name="Path 8437" d="M2.4,137.88l-.18,3.06-.43-.02L2,137.88Z" fill="#bb9a5c"></path>
<path id="Path_8438" data-name="Path 8438" d="M3.52,122.81l-.28,3.06-.37-.01.24-3.11Z" fill="#bb9a5c"></path>
<path id="Path_8439" data-name="Path 8439" d="M6.23,100.56l-.48,3.15-.5-.07.45-3.14Z" fill="#bb9a5c"></path>
<path id="Path_8440" data-name="Path 8440" d="M7.42,93.45,6.9,96.49l-.53-.06.55-3.09Z" fill="#bb9a5c"></path>
<path id="Path_8441" data-name="Path 8441" d="M73.22,9.11l-2.7,1.31-.23-.5,2.69-1.29Z" fill="#bb9a5c"></path>
<path id="Path_8442" data-name="Path 8442" d="M68.25,11.06c-1.43.62-2.8,1.32-4.18,2l-.38-.74c1.39-.71,2.76-1.4,4.22-2Z" fill="#bb9a5c"></path>
<path id="Path_8443" data-name="Path 8443" d="M12.16,101.47l-.45,3.05-.41-.01.47-3.09Z" fill="#bb9a5c"></path>
<path id="Path_8444" data-name="Path 8444" d="M70.24,10.09l3.25,7.1,3.11-1.47-.31-.65A91.129,91.129,0,0,0,83,6.54l2.83,4.37c1-.65,2-1.27,2.93-2l-3.94-5.4L82.16,5.22a100.93,100.93,0,0,1-6.58,8.5l-2.47-5Z" fill="#bb9a5c"></path>
<path id="Path_8445" data-name="Path 8445" d="M6.52,96.55l6.72,1.13a160.125,160.125,0,0,1,3.81-17.49l-5.37-1.53C10.62,82.39,9.76,86.14,9,89.91l1.8.4.69-3.25-.89-.18c.34-1.6.76-3.17,1.15-4.71l3.55.9c-.92,3.71-1.75,7.46-2.4,11.28l-5.82-1Z" fill="#bb9a5c"></path>
<path id="Path_8446" data-name="Path 8446" d="M15.78,93.93c-.68,2.56-1.31,5.17-2,7.71l1.28.2c-.52,3.31-1,6.68-1.36,10l-2.34-.28.84-6.81-.86-.14.44-3.3,1.2.2c.64-2.59,1.3-5.17,2.1-7.68Zm-2.71,11-.45,3.58.87.09L14,105Z" fill="#bb9a5c"></path>
<path id="Path_8447" data-name="Path 8447" d="M15.78,93.93c-.68,2.56-1.31,5.17-2,7.71l1.28.2c-.52,3.31-1,6.68-1.36,10l-2.34-.28.84-6.81-.86-.14.44-3.3,1.2.2c.64-2.59,1.3-5.17,2.1-7.68Zm-2.71,11-.45,3.58.87.09L14,105Z" fill="none" stroke="#fff" stroke-width="0.02"></path>
<path id="Path_8448" data-name="Path 8448" d="M5.83,100.39l6.22,1c-.93,6-1.62,12-2.23,18l-4.9-.49c.49-5,1-10,1.76-14.92l-1.33-.18Zm1.77,3.67c-.52,3.92-1,7.78-1.4,11.69l3,.3c.43-3.87.85-7.7,1.41-11.54Z" fill="#bb9a5c"></path>
<path id="Path_8449" data-name="Path 8449" d="M2,141.05l2.33.11.49-7.86,1.38.1-.48,7.83,3.82.23c.33-6.14.71-12.05,1.25-18.11l-7.69-.67L2.83,126l6.52.55c-.3,3.87-.58,7.64-.81,11.64l-1.65-.09c.12-2.7.27-5.26.49-7.89L4,130c-.2,2.63-.36,5.35-.49,7.93l-1.3-.11Z" fill="#bb9a5c"></path>
<path id="Path_8450" data-name="Path 8450" d="M10.3,165.34,10,174.2,4.49,174l-3.08-3.64-1.41-3,.15-5C1.36,133.25,2.22,104,10.52,75l1,.37C3.24,104.1,2.38,133.42,1.16,162.51l-.11,4.55,1.33,2.31,2.4,1.4,4.39.12.18-5.63Z" fill="#bb9a5c"></path>
<path id="Path_8451" data-name="Path 8451" d="M2.4,163.39c.21-6.1.43-12.2.71-18.28l4.25.19c-.26,4.9-.42,9.86-.6,14.79H8.1c.44-4.93,1-9.85,1.42-14.77l.91.1c-.47,6-.81,12.13-1.2,18.21L5.7,163.5q.24-7.5.55-15L4,148.39l-.46,11.55H4.6l-.12,3.46Z" fill="#bb9a5c"></path>
<path id="Path_8452" data-name="Path 8452" d="M46.79,25.46a135.451,135.451,0,0,1,15.6-10.11l2,3.75A127.491,127.491,0,0,0,52.1,26.89l.78,1.05a131.417,131.417,0,0,1,12.58-7l.46.77a139.406,139.406,0,0,0-15,9.17l-2.11-2.76A121.441,121.441,0,0,1,61.2,19.84L60,17.9q-5,3-9.73,6.34l.61.86-2.83,2Z" fill="#bb9a5c"></path>
<path id="Path_8453" data-name="Path 8453" d="M17.24,60.44l6.14,3a102.71,102.71,0,0,1,9.11-15.09L28,45c-2.31,3.14-4.4,6.44-6.38,9.76l1.67,1L25,52.89l-.76-.47,2.63-4.08,3.06,2.07A111.587,111.587,0,0,0,24,60.18l-5.19-2.71C18.26,58.41,17.78,59.42,17.24,60.44Z" fill="#bb9a5c"></path>
<path id="Path_8454" data-name="Path 8454" d="M28.85,41.93A106.51,106.51,0,0,0,16.41,62.41l-.95-.47A106.75,106.75,0,0,1,28.05,41.27Z" fill="#bb9a5c"></path>
<path id="Path_8455" data-name="Path 8455" d="M86.23.79c-5.9,4.82-13,8.2-20.56,11.59A124.671,124.671,0,0,0,44.56,25.7l-.65-.84A129.639,129.639,0,0,1,65.2,11.43C72.79,8,79.81,4.66,85.57,0Z" fill="#bb9a5c"></path>
<path id="Path_8456" data-name="Path 8456" d="M44.71,33.66A85.249,85.249,0,0,0,37.1,41.5l-2.34-1.91c-.79.95-1.64,1.91-2.39,2.93L35.5,45A99.87,99.87,0,0,1,48.1,32l-1.82-2.37a39,39,0,0,0-3.58,1.83A33.57,33.57,0,0,1,44.94,28L43,25.55A100.91,100.91,0,0,0,29.11,40l1.76,1.44c.81-1.08,1.67-2.07,2.49-3.06l-.87-.79a92.771,92.771,0,0,1,8.11-8.38l1,1.15c-.85,1.24-1.71,2.5-2.47,3.83-1,1.08-2.14,2.16-3.13,3.32l.74.68c1-1.15,2.08-2.2,3.1-3.3,1.24-.84,2.52-1.56,3.79-2.31Z" fill="#bb9a5c"></path>
<path id="Path_8457" data-name="Path 8457" d="M52,16.37a112.941,112.941,0,0,1,14.21-8L71.4,19.76c-.93.41-1.85.86-2.76,1.34l-5.2-10.32a111.82,111.82,0,0,0-10.92,6.31Z" fill="#bb9a5c"></path>
<path id="Path_8458" data-name="Path 8458" d="M175.28,174.2l3.24-.11,4.26-12.31-.11-3.35-4.66.17.12,3.31,2.46-.07-3,8.88-1.38.05c-.22-7.55-.48-15.06-.81-22.58l4.73-.21-.17-3.39-8.2.43c-.14-3.06-.35-5.86-.54-9l-1.29.07c.25,4.3.49,8.16.65,12.33l3.75-.13C174.72,156.9,175,165.52,175.28,174.2Z" fill="#bb9a5c"></path>
<path id="Path_8459" data-name="Path 8459" d="M142.75,38.58l2.4-2.27a87.051,87.051,0,0,0-6.09-12.07l-2.78-2.1-2.76,3.78,2.67,2L137.71,26a76.463,76.463,0,0,1,4.42,8.47l-.95,1c-5.17-5.38-11.16-9.57-17.5-13.6l2.49-4L123.23,16l-2.94,5,2.79,1.71a88.75,88.75,0,0,1,19.67,15.87Z" fill="#bb9a5c"></path>
<path id="Path_8460" data-name="Path 8460" d="M183.62,144.37l.13,3.5-1.4.04-.17-3.47Z" fill="#bb9a5c"></path>
<path id="Path_8461" data-name="Path 8461" d="M169.65,114.26l.36,3.46-1.39.07-.37-3.37Z" fill="#bb9a5c"></path>
<path id="Path_8462" data-name="Path 8462" d="M165.59,57.74l1.6,3.27-1.3.59-1.57-3.21Z" fill="#bb9a5c"></path>
<path id="Path_8463" data-name="Path 8463" d="M168.13,63.11c.53,1.13,1,2.26,1.45,3.37l-1.33.53c-.47-1.1-.88-2.24-1.44-3.33Z" fill="#bb9a5c"></path>
<path id="Path_8464" data-name="Path 8464" d="M111.48,18.8c1,.5,2,.94,2.9,1.47l-.64,1.25c-.95-.5-1.93-.91-2.9-1.45Z" fill="#bb9a5c"></path>
<path id="Path_8465" data-name="Path 8465" d="M116.2,21.28l2.87,1.63-.72,1.24-2.82-1.59Z" fill="#bb9a5c"></path>
<path id="Path_8466" data-name="Path 8466" d="M179,128.48l-5.72.46c-.7-8.8-1.59-17.58-2.84-26.24l5.65-.8.48,3.28-4.66.65q1.35,9.75,2.14,19.61l4.66-.38Z" fill="#bb9a5c"></path>
<path id="Path_8467" data-name="Path 8467" d="M151.71,49.83a101.43,101.43,0,0,1,15.2,34.56l7.68-1.83-.89-3.47-6.57,1.83a107.193,107.193,0,0,0-5-14.55l3.57-1.55-1.49-3.28-3.51,1.68a107.693,107.693,0,0,0-8.15-14" fill="#bb9a5c"></path>
<path id="Path_8468" data-name="Path 8468" d="M176.94,93.77l-7.74,1.4-.58-3.28,7.68-1.5Z" fill="#bb9a5c"></path>
<path id="Path_8469" data-name="Path 8469" d="M152.51,41.23l-4.58,3.6c.64.82,1.28,1.58,1.82,2.37l-1.95,1.46c-.57-.81-1.21-1.59-1.8-2.34l-.93.73c1.28,1.56,2.41,3.22,3.57,4.84l3.9-2.67,3.89-2.64C155.15,44.79,153.9,43,152.51,41.23Zm-1.14,6.34-1.37-2,2.87-2.17,1.45,2Z" fill="#bb9a5c"></path>
<path id="Path_8470" data-name="Path 8470" d="M120.29,21c-4.55-2.76-8.78-4.5-13.9-6.95l-1.5-2.9-.88,1.7a68.44,68.44,0,0,1-12.16-7.8l1-1.19a39.25,39.25,0,0,0,5.62-1l-1.39,2c-1,.24-1.92.43-2.9.62A67,67,0,0,0,102.71,11l2.4-6.54,3,1.67-1.06,4.58,1.7,3.35a94.179,94.179,0,0,1,12.08,6.1l-.47.93Z" fill="#bb9a5c"></path>
</g>
</g>


</g>
</svg>